<svg width="744" height="205" viewBox="0 0 744 205" fill="none" xmlns="http://www.w3.org/2000/svg">
<g filter="url(#filter0_d_29_74)">
<path d="M19.12 180.64C15.36 180.64 12.1867 179.947 9.6 178.56L11.6 172.36C14.3467 173.347 16.8 173.84 18.96 173.84C20.1333 173.84 20.9867 173.707 21.52 173.44C22.08 173.147 22.36 172.72 22.36 172.16C22.36 171.787 22.2133 171.467 21.92 171.2C21.6267 170.907 21.04 170.587 20.16 170.24C19.28 169.893 17.96 169.467 16.2 168.96C14.04 168.32 12.36 167.28 11.16 165.84C9.96 164.373 9.36 162.693 9.36 160.8C9.36 157.867 10.32 155.653 12.24 154.16C14.1867 152.64 16.8 151.88 20.08 151.88C21.7867 151.88 23.4667 152.067 25.12 152.44C26.7733 152.787 28.24 153.307 29.52 154L27.36 160.04C25.8667 159.533 24.56 159.173 23.44 158.96C22.3467 158.72 21.28 158.6 20.24 158.6C18.48 158.6 17.6 159.08 17.6 160.04C17.6 160.52 17.88 160.933 18.44 161.28C19.0267 161.6 20.2133 162.013 22 162.52C24.8 163.267 26.92 164.413 28.36 165.96C29.8 167.48 30.52 169.307 30.52 171.44C30.52 174.4 29.56 176.68 27.64 178.28C25.72 179.853 22.88 180.64 19.12 180.64ZM100.272 152.48H119.592V158.56H109.992V163.56H118.752V168.6H109.992V173.92H119.592V180H100.272V152.48ZM210.901 180.64C205.888 180.64 202.821 178.32 201.701 173.68L200.701 169.56H198.821V180H190.061V152.48H202.181C204.474 152.48 206.488 152.827 208.221 153.52C209.981 154.187 211.341 155.133 212.301 156.36C213.261 157.587 213.741 159 213.741 160.6C213.741 162.387 213.301 163.893 212.421 165.12C211.568 166.32 210.234 167.307 208.421 168.08C208.608 169.093 208.821 170.013 209.061 170.84C209.381 171.853 209.821 172.56 210.381 172.96C210.941 173.36 211.754 173.56 212.821 173.56C213.194 173.56 213.781 173.507 214.581 173.4V179.92C213.328 180.4 212.101 180.64 210.901 180.64ZM200.341 163.96C202.314 163.96 203.701 163.747 204.501 163.32C205.328 162.867 205.741 162.107 205.741 161.04C205.741 160.133 205.408 159.48 204.741 159.08C204.074 158.653 203.021 158.44 201.581 158.44H198.821V163.96H200.341ZM281.119 152.48H290.159L294.399 169.64L298.639 152.48H308.079L299.479 180H289.279L281.119 152.48ZM376.514 152.48H385.754V180H376.514V152.48ZM469.927 180.64C467.261 180.64 464.834 180.013 462.647 178.76C460.487 177.48 458.767 175.747 457.487 173.56C456.234 171.347 455.607 168.907 455.607 166.24C455.607 163.52 456.221 161.067 457.447 158.88C458.674 156.693 460.354 154.987 462.487 153.76C464.621 152.507 467.021 151.88 469.687 151.88C471.127 151.88 472.541 152.053 473.927 152.4C475.314 152.747 476.501 153.24 477.487 153.88L476.407 160.08C474.487 159.36 472.754 159 471.207 159C469.074 159 467.434 159.627 466.287 160.88C465.141 162.107 464.567 163.88 464.567 166.2C464.567 168.467 465.167 170.24 466.367 171.52C467.594 172.773 469.287 173.4 471.447 173.4C472.274 173.4 473.047 173.32 473.767 173.16C474.487 173 475.367 172.707 476.407 172.28L477.527 178.6C475.207 179.96 472.674 180.64 469.927 180.64ZM547.108 152.48H566.428V158.56H556.828V163.56H565.588V168.6H556.828V173.92H566.428V180H547.108V152.48ZM645.417 180.64C641.657 180.64 638.484 179.947 635.897 178.56L637.897 172.36C640.644 173.347 643.097 173.84 645.257 173.84C646.43 173.84 647.284 173.707 647.817 173.44C648.377 173.147 648.657 172.72 648.657 172.16C648.657 171.787 648.51 171.467 648.217 171.2C647.924 170.907 647.337 170.587 646.457 170.24C645.577 169.893 644.257 169.467 642.497 168.96C640.337 168.32 638.657 167.28 637.457 165.84C636.257 164.373 635.657 162.693 635.657 160.8C635.657 157.867 636.617 155.653 638.537 154.16C640.484 152.64 643.097 151.88 646.377 151.88C648.084 151.88 649.764 152.067 651.417 152.44C653.07 152.787 654.537 153.307 655.817 154L653.657 160.04C652.164 159.533 650.857 159.173 649.737 158.96C648.644 158.72 647.577 158.6 646.537 158.6C644.777 158.6 643.897 159.08 643.897 160.04C643.897 160.52 644.177 160.933 644.737 161.28C645.324 161.6 646.51 162.013 648.297 162.52C651.097 163.267 653.217 164.413 654.657 165.96C656.097 167.48 656.817 169.307 656.817 171.44C656.817 174.4 655.857 176.68 653.937 178.28C652.017 179.853 649.177 180.64 645.417 180.64Z" fill="#0055ED"/>
</g>
<path d="M54.784 79.488C61.824 84.352 66.304 93.312 66.304 107.136V128H50.304V107.136C50.304 93.568 45.312 89.088 36.608 89.088H27.648V128H11.52V89.088H3.2V74.752H11.52V38.4H27.648V74.752H33.28C39.936 74.752 45.056 70.272 45.056 56.704V38.4H61.056V57.344C61.056 66.944 58.752 74.24 54.784 79.488ZM77.885 98.56V38.4H93.885V98.56C93.885 110.72 99.389 114.944 106.045 114.944C112.573 114.944 118.077 110.72 118.077 98.56V38.4H134.077V98.56C134.077 119.424 120.893 129.92 106.045 129.92C90.813 129.92 77.885 119.424 77.885 98.56ZM206.947 81.536C213.347 86.4 216.547 93.696 216.547 101.504C216.547 115.584 207.715 128 185.827 128H152.675V89.728H144.355V75.264H152.675V38.4H184.163C205.539 38.4 214.243 50.816 214.243 63.616C214.243 70.272 211.683 76.672 206.947 81.536ZM184.163 53.12H168.035V75.264H184.547C194.147 75.264 198.115 70.4 198.115 64.128C198.115 57.856 194.147 53.12 184.163 53.12ZM168.035 113.024H185.827C196.195 113.024 200.419 108.16 200.419 101.504C200.419 94.848 196.195 89.728 186.339 89.728H168.035V113.024ZM318.551 103.936H275.415V92.8H318.551V103.936ZM376.825 38.4H436.729V53.248H414.841V128H398.841V53.248H376.825V38.4ZM467.395 89.984V113.152H504.515V128H451.395V89.984H443.075V75.52H451.395V38.4H488.899V53.12H467.395V75.52H494.403V89.984H467.395ZM557.477 129.92C530.213 129.92 509.605 109.568 509.605 83.2C509.605 56.704 530.085 36.48 557.477 36.48C571.301 36.48 583.589 41.984 591.269 51.584L580.133 62.208C574.629 55.552 566.309 51.328 557.477 51.328C539.429 51.328 525.605 65.024 525.605 83.2C525.605 101.376 539.429 114.944 557.477 114.944C566.309 114.944 574.629 110.848 580.133 104.192L591.269 114.816C583.461 124.288 571.173 129.92 557.477 129.92ZM644.194 76.544V38.4H660.194V128H644.194V91.648H620.77V128H604.77V91.648H596.45V76.544H604.77V38.4H620.77V76.544H644.194Z" fill="black"/>
<defs>
<filter id="filter0_d_29_74" x="9.36035" y="151.88" width="655.457" height="38.7598" filterUnits="userSpaceOnUse" color-interpolation-filters="sRGB">
<feFlood flood-opacity="0" result="BackgroundImageFix"/>
<feColorMatrix in="SourceAlpha" type="matrix" values="0 0 0 0 0 0 0 0 0 0 0 0 0 0 0 0 0 0 127 0" result="hardAlpha"/>
<feOffset dx="4" dy="6"/>
<feGaussianBlur stdDeviation="2"/>
<feComposite in2="hardAlpha" operator="out"/>
<feColorMatrix type="matrix" values="0 0 0 0 0 0 0 0 0 0 0 0 0 0 0 0 0 0 0.25 0"/>
<feBlend mode="normal" in2="BackgroundImageFix" result="effect1_dropShadow_29_74"/>
<feBlend mode="normal" in="SourceGraphic" in2="effect1_dropShadow_29_74" result="shape"/>
</filter>
</defs>
</svg>
