<svg width="668" height="257" viewBox="0 0 668 257" fill="none" xmlns="http://www.w3.org/2000/svg">
<g filter="url(#filter0_d_29_63)">
<path d="M19.12 232.64C15.36 232.64 12.1867 231.947 9.6 230.56L11.6 224.36C14.3467 225.347 16.8 225.84 18.96 225.84C20.1333 225.84 20.9867 225.707 21.52 225.44C22.08 225.147 22.36 224.72 22.36 224.16C22.36 223.787 22.2133 223.467 21.92 223.2C21.6267 222.907 21.04 222.587 20.16 222.24C19.28 221.893 17.96 221.467 16.2 220.96C14.04 220.32 12.36 219.28 11.16 217.84C9.96 216.373 9.36 214.693 9.36 212.8C9.36 209.867 10.32 207.653 12.24 206.16C14.1867 204.64 16.8 203.88 20.08 203.88C21.7867 203.88 23.4667 204.067 25.12 204.44C26.7733 204.787 28.24 205.307 29.52 206L27.36 212.04C25.8667 211.533 24.56 211.173 23.44 210.96C22.3467 210.72 21.28 210.6 20.24 210.6C18.48 210.6 17.6 211.08 17.6 212.04C17.6 212.52 17.88 212.933 18.44 213.28C19.0267 213.6 20.2133 214.013 22 214.52C24.8 215.267 26.92 216.413 28.36 217.96C29.8 219.48 30.52 221.307 30.52 223.44C30.52 226.4 29.56 228.68 27.64 230.28C25.72 231.853 22.88 232.64 19.12 232.64ZM100.272 204.48H119.592V210.56H109.992V215.56H118.752V220.6H109.992V225.92H119.592V232H100.272V204.48ZM210.901 232.64C205.888 232.64 202.821 230.32 201.701 225.68L200.701 221.56H198.821V232H190.061V204.48H202.181C204.474 204.48 206.488 204.827 208.221 205.52C209.981 206.187 211.341 207.133 212.301 208.36C213.261 209.587 213.741 211 213.741 212.6C213.741 214.387 213.301 215.893 212.421 217.12C211.568 218.32 210.234 219.307 208.421 220.08C208.608 221.093 208.821 222.013 209.061 222.84C209.381 223.853 209.821 224.56 210.381 224.96C210.941 225.36 211.754 225.56 212.821 225.56C213.194 225.56 213.781 225.507 214.581 225.4V231.92C213.328 232.4 212.101 232.64 210.901 232.64ZM200.341 215.96C202.314 215.96 203.701 215.747 204.501 215.32C205.328 214.867 205.741 214.107 205.741 213.04C205.741 212.133 205.408 211.48 204.741 211.08C204.074 210.653 203.021 210.44 201.581 210.44H198.821V215.96H200.341ZM281.119 204.48H290.159L294.399 221.64L298.639 204.48H308.079L299.479 232H289.279L281.119 204.48ZM376.514 204.48H385.754V232H376.514V204.48ZM469.927 232.64C467.261 232.64 464.834 232.013 462.647 230.76C460.487 229.48 458.767 227.747 457.487 225.56C456.234 223.347 455.607 220.907 455.607 218.24C455.607 215.52 456.221 213.067 457.447 210.88C458.674 208.693 460.354 206.987 462.487 205.76C464.621 204.507 467.021 203.88 469.687 203.88C471.127 203.88 472.541 204.053 473.927 204.4C475.314 204.747 476.501 205.24 477.487 205.88L476.407 212.08C474.487 211.36 472.754 211 471.207 211C469.074 211 467.434 211.627 466.287 212.88C465.141 214.107 464.567 215.88 464.567 218.2C464.567 220.467 465.167 222.24 466.367 223.52C467.594 224.773 469.287 225.4 471.447 225.4C472.274 225.4 473.047 225.32 473.767 225.16C474.487 225 475.367 224.707 476.407 224.28L477.527 230.6C475.207 231.96 472.674 232.64 469.927 232.64ZM547.108 204.48H566.428V210.56H556.828V215.56H565.588V220.6H556.828V225.92H566.428V232H547.108V204.48ZM645.417 232.64C641.657 232.64 638.484 231.947 635.897 230.56L637.897 224.36C640.644 225.347 643.097 225.84 645.257 225.84C646.43 225.84 647.284 225.707 647.817 225.44C648.377 225.147 648.657 224.72 648.657 224.16C648.657 223.787 648.51 223.467 648.217 223.2C647.924 222.907 647.337 222.587 646.457 222.24C645.577 221.893 644.257 221.467 642.497 220.96C640.337 220.32 638.657 219.28 637.457 217.84C636.257 216.373 635.657 214.693 635.657 212.8C635.657 209.867 636.617 207.653 638.537 206.16C640.484 204.64 643.097 203.88 646.377 203.88C648.084 203.88 649.764 204.067 651.417 204.44C653.07 204.787 654.537 205.307 655.817 206L653.657 212.04C652.164 211.533 650.857 211.173 649.737 210.96C648.644 210.72 647.577 210.6 646.537 210.6C644.777 210.6 643.897 211.08 643.897 212.04C643.897 212.52 644.177 212.933 644.737 213.28C645.324 213.6 646.51 214.013 648.297 214.52C651.097 215.267 653.217 216.413 654.657 217.96C656.097 219.48 656.817 221.307 656.817 223.44C656.817 226.4 655.857 228.68 653.937 230.28C652.017 231.853 649.177 232.64 645.417 232.64Z" fill="#0055ED"/>
</g>
<path d="M54.784 116.488C61.824 121.352 66.304 130.312 66.304 144.136V165H50.304V144.136C50.304 130.568 45.312 126.088 36.608 126.088H27.648V165H11.52V126.088H3.2V111.752H11.52V75.4H27.648V111.752H33.28C39.936 111.752 45.056 107.272 45.056 93.704V75.4H61.056V94.344C61.056 103.944 58.752 111.24 54.784 116.488ZM77.885 135.56V75.4H93.885V135.56C93.885 147.72 99.389 151.944 106.045 151.944C112.573 151.944 118.077 147.72 118.077 135.56V75.4H134.077V135.56C134.077 156.424 120.893 166.92 106.045 166.92C90.813 166.92 77.885 156.424 77.885 135.56ZM206.947 118.536C213.347 123.4 216.547 130.696 216.547 138.504C216.547 152.584 207.715 165 185.827 165H152.675V126.728H144.355V112.264H152.675V75.4H184.163C205.539 75.4 214.243 87.816 214.243 100.616C214.243 107.272 211.683 113.672 206.947 118.536ZM184.163 90.12H168.035V112.264H184.547C194.147 112.264 198.115 107.4 198.115 101.128C198.115 94.856 194.147 90.12 184.163 90.12ZM168.035 150.024H185.827C196.195 150.024 200.419 145.16 200.419 138.504C200.419 131.848 196.195 126.728 186.339 126.728H168.035V150.024ZM318.551 140.936H275.415V129.8H318.551V140.936ZM376.825 75.4H436.729V90.248H414.841V165H398.841V90.248H376.825V75.4ZM467.395 126.984V150.152H504.515V165H451.395V126.984H443.075V112.52H451.395V75.4H488.899V90.12H467.395V112.52H494.403V126.984H467.395ZM557.477 166.92C530.213 166.92 509.605 146.568 509.605 120.2C509.605 93.704 530.085 73.48 557.477 73.48C571.301 73.48 583.589 78.984 591.269 88.584L580.133 99.208C574.629 92.552 566.309 88.328 557.477 88.328C539.429 88.328 525.605 102.024 525.605 120.2C525.605 138.376 539.429 151.944 557.477 151.944C566.309 151.944 574.629 147.848 580.133 141.192L591.269 151.816C583.461 161.288 571.173 166.92 557.477 166.92ZM644.194 113.544V75.4H660.194V165H644.194V128.648H620.77V165H604.77V128.648H596.45V113.544H604.77V75.4H620.77V113.544H644.194Z" fill="black"/>
<rect x="388" width="274" height="16" fill="url(#paint0_linear_29_63)"/>
<rect x="8" width="274" height="16" fill="url(#paint1_linear_29_63)"/>
<rect x="388" y="26" width="274" height="16" fill="url(#paint2_linear_29_63)"/>
<rect x="8" y="26" width="274" height="16" fill="url(#paint3_linear_29_63)"/>
<defs>
<filter id="filter0_d_29_63" x="9.36035" y="203.88" width="655.457" height="38.7603" filterUnits="userSpaceOnUse" color-interpolation-filters="sRGB">
<feFlood flood-opacity="0" result="BackgroundImageFix"/>
<feColorMatrix in="SourceAlpha" type="matrix" values="0 0 0 0 0 0 0 0 0 0 0 0 0 0 0 0 0 0 127 0" result="hardAlpha"/>
<feOffset dx="4" dy="6"/>
<feGaussianBlur stdDeviation="2"/>
<feComposite in2="hardAlpha" operator="out"/>
<feColorMatrix type="matrix" values="0 0 0 0 0 0 0 0 0 0 0 0 0 0 0 0 0 0 0.25 0"/>
<feBlend mode="normal" in2="BackgroundImageFix" result="effect1_dropShadow_29_63"/>
<feBlend mode="normal" in="SourceGraphic" in2="effect1_dropShadow_29_63" result="shape"/>
</filter>
<linearGradient id="paint0_linear_29_63" x1="388" y1="8" x2="662" y2="8" gradientUnits="userSpaceOnUse">
<stop stop-color="#0055ED"/>
<stop offset="0.51" stop-color="#50E3C2"/>
<stop offset="1" stop-color="#2292DB"/>
</linearGradient>
<linearGradient id="paint1_linear_29_63" x1="8" y1="8" x2="282" y2="8" gradientUnits="userSpaceOnUse">
<stop stop-color="#0055ED"/>
<stop offset="0.51" stop-color="#50E3C2"/>
<stop offset="1" stop-color="#2292DB"/>
</linearGradient>
<linearGradient id="paint2_linear_29_63" x1="388" y1="34" x2="662" y2="34" gradientUnits="userSpaceOnUse">
<stop stop-color="#0055ED"/>
<stop offset="0.51" stop-color="#50E3C2"/>
<stop offset="1" stop-color="#2292DB"/>
</linearGradient>
<linearGradient id="paint3_linear_29_63" x1="8" y1="34" x2="282" y2="34" gradientUnits="userSpaceOnUse">
<stop stop-color="#0055ED"/>
<stop offset="0.51" stop-color="#50E3C2"/>
<stop offset="1" stop-color="#2292DB"/>
</linearGradient>
</defs>
</svg>
