<svg width="1072" height="272" viewBox="0 0 1072 272" fill="none" xmlns="http://www.w3.org/2000/svg">
<g filter="url(#filter0_d_28_197)">
<path d="M347.12 247.64C343.36 247.64 340.187 246.947 337.6 245.56L339.6 239.36C342.347 240.347 344.8 240.84 346.96 240.84C348.133 240.84 348.987 240.707 349.52 240.44C350.08 240.147 350.36 239.72 350.36 239.16C350.36 238.787 350.213 238.467 349.92 238.2C349.627 237.907 349.04 237.587 348.16 237.24C347.28 236.893 345.96 236.467 344.2 235.96C342.04 235.32 340.36 234.28 339.16 232.84C337.96 231.373 337.36 229.693 337.36 227.8C337.36 224.867 338.32 222.653 340.24 221.16C342.187 219.64 344.8 218.88 348.08 218.88C349.787 218.88 351.467 219.067 353.12 219.44C354.773 219.787 356.24 220.307 357.52 221L355.36 227.04C353.867 226.533 352.56 226.173 351.44 225.96C350.347 225.72 349.28 225.6 348.24 225.6C346.48 225.6 345.6 226.08 345.6 227.04C345.6 227.52 345.88 227.933 346.44 228.28C347.027 228.6 348.213 229.013 350 229.52C352.8 230.267 354.92 231.413 356.36 232.96C357.8 234.48 358.52 236.307 358.52 238.44C358.52 241.4 357.56 243.68 355.64 245.28C353.72 246.853 350.88 247.64 347.12 247.64ZM428.272 219.48H447.592V225.56H437.992V230.56H446.752V235.6H437.992V240.92H447.592V247H428.272V219.48ZM538.901 247.64C533.888 247.64 530.821 245.32 529.701 240.68L528.701 236.56H526.821V247H518.061V219.48H530.181C532.474 219.48 534.488 219.827 536.221 220.52C537.981 221.187 539.341 222.133 540.301 223.36C541.261 224.587 541.741 226 541.741 227.6C541.741 229.387 541.301 230.893 540.421 232.12C539.568 233.32 538.234 234.307 536.421 235.08C536.608 236.093 536.821 237.013 537.061 237.84C537.381 238.853 537.821 239.56 538.381 239.96C538.941 240.36 539.754 240.56 540.821 240.56C541.194 240.56 541.781 240.507 542.581 240.4V246.92C541.328 247.4 540.101 247.64 538.901 247.64ZM528.341 230.96C530.314 230.96 531.701 230.747 532.501 230.32C533.328 229.867 533.741 229.107 533.741 228.04C533.741 227.133 533.408 226.48 532.741 226.08C532.074 225.653 531.021 225.44 529.581 225.44H526.821V230.96H528.341ZM609.119 219.48H618.159L622.399 236.64L626.639 219.48H636.079L627.479 247H617.279L609.119 219.48ZM704.514 219.48H713.754V247H704.514V219.48ZM797.927 247.64C795.261 247.64 792.834 247.013 790.647 245.76C788.487 244.48 786.767 242.747 785.487 240.56C784.234 238.347 783.607 235.907 783.607 233.24C783.607 230.52 784.221 228.067 785.447 225.88C786.674 223.693 788.354 221.987 790.487 220.76C792.621 219.507 795.021 218.88 797.687 218.88C799.127 218.88 800.541 219.053 801.927 219.4C803.314 219.747 804.501 220.24 805.487 220.88L804.407 227.08C802.487 226.36 800.754 226 799.207 226C797.074 226 795.434 226.627 794.287 227.88C793.141 229.107 792.567 230.88 792.567 233.2C792.567 235.467 793.167 237.24 794.367 238.52C795.594 239.773 797.287 240.4 799.447 240.4C800.274 240.4 801.047 240.32 801.767 240.16C802.487 240 803.367 239.707 804.407 239.28L805.527 245.6C803.207 246.96 800.674 247.64 797.927 247.64ZM875.108 219.48H894.428V225.56H884.828V230.56H893.588V235.6H884.828V240.92H894.428V247H875.108V219.48ZM973.417 247.64C969.657 247.64 966.484 246.947 963.897 245.56L965.897 239.36C968.644 240.347 971.097 240.84 973.257 240.84C974.43 240.84 975.284 240.707 975.817 240.44C976.377 240.147 976.657 239.72 976.657 239.16C976.657 238.787 976.51 238.467 976.217 238.2C975.924 237.907 975.337 237.587 974.457 237.24C973.577 236.893 972.257 236.467 970.497 235.96C968.337 235.32 966.657 234.28 965.457 232.84C964.257 231.373 963.657 229.693 963.657 227.8C963.657 224.867 964.617 222.653 966.537 221.16C968.484 219.64 971.097 218.88 974.377 218.88C976.084 218.88 977.764 219.067 979.417 219.44C981.07 219.787 982.537 220.307 983.817 221L981.657 227.04C980.164 226.533 978.857 226.173 977.737 225.96C976.644 225.72 975.577 225.6 974.537 225.6C972.777 225.6 971.897 226.08 971.897 227.04C971.897 227.52 972.177 227.933 972.737 228.28C973.324 228.6 974.51 229.013 976.297 229.52C979.097 230.267 981.217 231.413 982.657 232.96C984.097 234.48 984.817 236.307 984.817 238.44C984.817 241.4 983.857 243.68 981.937 245.28C980.017 246.853 977.177 247.64 973.417 247.64Z" fill="#0055ED"/>
</g>
<path d="M382.784 146.488C389.824 151.352 394.304 160.312 394.304 174.136V195H378.304V174.136C378.304 160.568 373.312 156.088 364.608 156.088H355.648V195H339.52V156.088H331.2V141.752H339.52V105.4H355.648V141.752H361.28C367.936 141.752 373.056 137.272 373.056 123.704V105.4H389.056V124.344C389.056 133.944 386.752 141.24 382.784 146.488ZM405.885 165.56V105.4H421.885V165.56C421.885 177.72 427.389 181.944 434.045 181.944C440.573 181.944 446.077 177.72 446.077 165.56V105.4H462.077V165.56C462.077 186.424 448.893 196.92 434.045 196.92C418.813 196.92 405.885 186.424 405.885 165.56ZM534.947 148.536C541.347 153.4 544.547 160.696 544.547 168.504C544.547 182.584 535.715 195 513.827 195H480.675V156.728H472.355V142.264H480.675V105.4H512.163C533.539 105.4 542.243 117.816 542.243 130.616C542.243 137.272 539.683 143.672 534.947 148.536ZM512.163 120.12H496.035V142.264H512.547C522.147 142.264 526.115 137.4 526.115 131.128C526.115 124.856 522.147 120.12 512.163 120.12ZM496.035 180.024H513.827C524.195 180.024 528.419 175.16 528.419 168.504C528.419 161.848 524.195 156.728 514.339 156.728H496.035V180.024ZM646.551 170.936H603.415V159.8H646.551V170.936ZM704.825 105.4H764.729V120.248H742.841V195H726.841V120.248H704.825V105.4ZM795.395 156.984V180.152H832.515V195H779.395V156.984H771.075V142.52H779.395V105.4H816.899V120.12H795.395V142.52H822.403V156.984H795.395ZM885.477 196.92C858.213 196.92 837.605 176.568 837.605 150.2C837.605 123.704 858.085 103.48 885.477 103.48C899.301 103.48 911.589 108.984 919.269 118.584L908.133 129.208C902.629 122.552 894.309 118.328 885.477 118.328C867.429 118.328 853.605 132.024 853.605 150.2C853.605 168.376 867.429 181.944 885.477 181.944C894.309 181.944 902.629 177.848 908.133 171.192L919.269 181.816C911.461 191.288 899.173 196.92 885.477 196.92ZM972.194 143.544V105.4H988.194V195H972.194V158.648H948.77V195H932.77V158.648H924.45V143.544H932.77V105.4H948.77V143.544H972.194Z" fill="black"/>
<rect x="716" y="30" width="274" height="16" fill="url(#paint0_linear_28_197)"/>
<rect x="336" y="30" width="274" height="16" fill="url(#paint1_linear_28_197)"/>
<rect x="716" y="56" width="274" height="16" fill="url(#paint2_linear_28_197)"/>
<rect x="336" y="56" width="274" height="16" fill="url(#paint3_linear_28_197)"/>
<g filter="url(#filter1_i_28_197)">
<path d="M121.653 208.726C118.06 209.099 114.539 209.988 111.2 211.367L111.088 211.42L79.2677 227.526L94.1821 258.892L121.845 244.9L165.874 263.601L234.799 226.393L229.224 216.075L165.258 250.584L121.445 231.979L99.6156 243L94.7925 232.823L116.097 222.038C118.255 221.165 120.53 220.618 122.848 220.414C126.953 219.994 131.83 220.416 136.297 223.703L136.383 223.735L136.408 223.756C142.958 228.371 147.875 231.559 154.398 232.899C160.92 234.239 168.114 233.727 180.082 232.455L178.829 220.772C167.083 222.022 160.903 222.235 156.76 221.372C152.616 220.55 149.54 218.627 143.232 214.194L143.158 214.16C135.78 208.78 127.602 208.093 121.653 208.726Z" fill="url(#paint4_linear_28_197)"/>
</g>
<path d="M121.713 209.304L121.714 209.304C127.572 208.681 135.591 209.361 142.816 214.63L142.864 214.665L142.918 214.689L142.943 214.701C149.208 219.103 152.374 221.094 156.644 221.941C160.821 222.811 166.956 222.605 178.313 221.411L179.442 231.938C167.807 233.166 160.83 233.627 154.515 232.329C148.129 231.017 143.303 227.902 136.76 223.293L136.75 223.285L136.677 223.225L136.588 223.192L136.576 223.187C131.972 219.83 126.962 219.409 122.793 219.836C120.419 220.045 118.089 220.605 115.879 221.499L115.857 221.509L115.835 221.52L94.5301 232.304L94.0249 232.56L94.2674 233.072L99.0904 243.249L99.3456 243.787L99.8775 243.519L121.466 232.619L165.031 251.118L165.288 251.228L165.534 251.095L228.988 216.862L234.011 226.158L165.844 262.956L122.072 244.365L121.824 244.259L121.583 244.381L94.4513 258.105L80.0361 227.789L111.342 211.942L111.435 211.899C114.718 210.544 118.18 209.671 121.713 209.304Z" stroke="white" stroke-width="1.16234"/>
<g filter="url(#filter2_i_28_197)">
<path d="M191.14 59.156C194.744 59.1509 198.329 58.624 201.784 57.5917L201.901 57.5505L235.123 44.7536L223.5 11.9969L194.62 23.1119L152.81 -0.000130551L80.6134 30.0278L85.1008 40.8722L152.101 13.0261L193.706 36.0205L216.494 27.2697L220.249 37.8965L198.006 46.465C195.775 47.1145 193.462 47.4276 191.14 47.3942C187.021 47.3942 182.224 46.4767 178.123 42.7482L178.041 42.7071L178.017 42.6835C171.984 37.4201 167.426 33.7446 161.087 31.745C154.749 29.7455 147.555 29.5221 135.546 29.5691L135.604 41.3309C147.391 41.2839 153.548 41.7014 157.572 42.9835C161.603 44.2243 164.462 46.4532 170.273 51.5108L170.343 51.552C177.121 57.6622 185.17 59.1795 191.14 59.156Z" fill="url(#paint5_linear_28_197)"/>
</g>
<path d="M191.139 58.5748L191.137 58.5748C185.26 58.598 177.37 57.1037 170.732 51.1203L170.688 51.0805L170.637 51.0505L170.613 51.0367C164.841 46.0139 161.9 43.7082 157.746 42.4288C153.688 41.1368 147.576 40.7167 136.182 40.7478L136.13 30.1482C147.803 30.111 154.776 30.3635 160.912 32.2993C167.118 34.2568 171.593 37.8508 177.62 43.1081L177.629 43.1172L177.696 43.1841L177.78 43.2265L177.792 43.2322C182.022 47.0453 186.953 47.9747 191.136 47.9753C193.514 48.0092 195.884 47.6882 198.168 47.023L198.192 47.0161L198.214 47.0073L220.458 38.4388L220.985 38.2357L220.797 37.7029L217.042 27.076L216.843 26.5131L216.286 26.7271L193.75 35.3809L152.382 12.5174L152.137 12.3819L151.878 12.4894L85.4152 40.1122L81.3722 30.3416L152.774 0.644169L194.338 23.6205L194.575 23.7515L194.828 23.6543L223.152 12.7537L234.386 44.4147L201.7 57.005L201.605 57.0387C198.208 58.0525 194.683 58.5698 191.139 58.5748Z" stroke="white" stroke-width="1.16234"/>
<g filter="url(#filter3_i_28_197)">
<path d="M95.429 160.744C92.0412 152.559 90.2976 143.788 90.2976 134.929C90.2976 117.039 97.3999 99.8808 110.042 87.2303C122.684 74.5798 139.83 67.4729 157.708 67.4729C175.587 67.4729 192.733 74.5798 205.375 87.2303C218.017 99.8808 225.119 117.039 225.119 134.929C225.119 143.788 223.376 152.559 219.988 160.744C216.6 168.928 211.635 176.364 205.375 182.628C199.115 188.892 191.684 193.861 183.505 197.251C175.327 200.641 166.561 202.385 157.708 202.385C148.856 202.385 140.09 200.641 131.912 197.251C123.733 193.861 116.302 188.892 110.042 182.628C103.782 176.364 98.8167 168.928 95.429 160.744ZM200.283 177.532C211.574 166.233 217.918 150.908 217.918 134.929C217.918 118.95 211.574 103.625 200.283 92.3264C188.992 81.0274 173.677 74.6796 157.708 74.6796C141.74 74.6796 126.425 81.0274 115.134 92.3264C103.842 103.625 97.499 118.95 97.499 134.929C97.499 150.908 103.842 166.233 115.134 177.532C126.425 188.831 141.74 195.179 157.708 195.179C173.677 195.179 188.992 188.831 200.283 177.532Z" fill="url(#paint6_linear_28_197)" stroke="white" stroke-width="0.774893"/>
<path d="M157.708 198.395C149.751 198.395 142.866 191.412 137.95 179.862C133.049 168.345 130.178 152.436 130.178 134.929C130.178 117.422 133.049 101.513 137.95 89.9967C142.866 78.4464 149.751 71.4636 157.708 71.4636C165.665 71.4636 172.55 78.4464 177.466 89.9967C182.367 101.513 185.237 117.422 185.237 134.929C185.237 152.436 182.367 168.345 177.466 179.862C172.55 191.412 165.665 198.395 157.708 198.395ZM157.708 191.188C160.378 191.188 162.974 189.535 165.345 186.683C167.721 183.825 169.92 179.707 171.795 174.639C175.548 164.501 178.036 150.486 178.036 134.929C178.036 119.372 175.548 105.357 171.795 95.2188C169.92 90.1513 167.721 86.0335 165.345 83.1749C162.974 80.3235 160.378 78.6703 157.708 78.6703C155.038 78.6703 152.442 80.3235 150.071 83.1749C147.695 86.0335 145.496 90.1513 143.62 95.2188C139.868 105.357 137.38 119.372 137.38 134.929C137.38 150.486 139.868 164.501 143.62 174.639C145.496 179.707 147.695 183.825 150.071 186.683C152.442 189.535 155.038 191.188 157.708 191.188Z" fill="url(#paint7_linear_28_197)" stroke="white" stroke-width="0.774893"/>
<path d="M212.796 98.2819C210.508 100.206 207.941 101.982 205.095 103.609L205.095 103.609C193.383 110.313 177.699 114.117 161.003 114.117C141.361 114.117 123.168 108.84 111.264 99.9076C110.238 99.1365 109.245 98.3313 108.286 97.4822L113.111 92.1348C113.888 92.8193 114.712 93.4885 115.585 94.1423C126.183 102.092 142.863 106.91 161.003 106.91C176.473 106.91 190.931 103.412 201.514 97.3616C203.845 96.0413 206.054 94.5158 208.113 92.8033L212.796 98.2819ZM201.516 172.586L201.515 172.586C190.932 166.527 176.473 163.036 161.003 163.036C142.864 163.036 126.185 167.854 115.586 175.804C114.713 176.449 113.887 177.115 113.11 177.804L108.285 172.471C109.22 171.638 110.213 170.82 111.264 170.031C123.168 161.107 141.361 155.83 161.003 155.83C177.699 155.83 193.383 159.634 205.095 166.33L205.096 166.331C207.816 167.873 210.393 169.656 212.795 171.658L208.114 177.135C206.171 175.514 203.972 173.998 201.516 172.586ZM94.2859 138.533V131.326H221.131V138.533H94.2859Z" fill="url(#paint8_linear_28_197)" stroke="white" stroke-width="0.774893"/>
</g>
<g filter="url(#filter4_i_28_197)">
<mask id="path-14-inside-1_28_197" fill="white">
<path d="M72.3808 205.623C59.4418 197.182 48.6062 185.337 41.0351 171.359C33.464 157.38 29.4429 141.794 29.4028 126.272C29.3626 110.749 33.305 95.8751 40.8073 83.2436C48.3096 70.6122 59.089 60.6995 71.9903 54.568L75.0819 60.9805C63.229 66.6138 53.3256 75.7209 46.4329 87.3259C39.5403 98.9309 35.9183 112.596 35.9552 126.857C35.9921 141.118 39.6864 155.438 46.6422 168.28C53.598 181.123 63.5532 192.005 75.4407 199.76L72.3808 205.623Z"/>
</mask>
<path d="M72.3808 205.623C59.4418 197.182 48.6062 185.337 41.0351 171.359C33.464 157.38 29.4429 141.794 29.4028 126.272C29.3626 110.749 33.305 95.8751 40.8073 83.2436C48.3096 70.6122 59.089 60.6995 71.9903 54.568L75.0819 60.9805C63.229 66.6138 53.3256 75.7209 46.4329 87.3259C39.5403 98.9309 35.9183 112.596 35.9552 126.857C35.9921 141.118 39.6864 155.438 46.6422 168.28C53.598 181.123 63.5532 192.005 75.4407 199.76L72.3808 205.623Z" fill="url(#paint9_linear_28_197)" stroke="white" stroke-width="1.54979" mask="url(#path-14-inside-1_28_197)"/>
<path d="M79.2904 56.662C79.2904 59.5792 76.9273 61.9435 74.0127 61.9435C71.0982 61.9435 68.7351 59.5792 68.7351 56.662C68.7351 53.7449 71.0982 51.3806 74.0127 51.3806C76.9273 51.3806 79.2904 53.7449 79.2904 56.662Z" fill="url(#paint10_linear_28_197)" stroke="white" stroke-width="0.774893"/>
<path d="M79.2904 202.955C79.2904 205.872 76.9273 208.236 74.0127 208.236C71.0982 208.236 68.7351 205.872 68.7351 202.955C68.7351 200.038 71.0982 197.674 74.0127 197.674C76.9273 197.674 79.2904 200.038 79.2904 202.955Z" fill="url(#paint11_linear_28_197)" stroke="white" stroke-width="0.774893"/>
</g>
<g filter="url(#filter5_i_28_197)">
<mask id="path-17-inside-2_28_197" fill="white">
<path d="M241.617 205.623C254.556 197.182 265.392 185.337 272.963 171.359C280.534 157.38 284.555 141.794 284.595 126.272C284.635 110.749 280.693 95.8751 273.191 83.2436C265.688 70.6122 254.909 60.6995 242.008 54.568L238.916 60.9805C250.769 66.6138 260.672 75.7209 267.565 87.3259C274.458 98.9309 278.08 112.596 278.043 126.857C278.006 141.118 274.312 155.438 267.356 168.28C260.4 181.123 250.445 192.005 238.557 199.76L241.617 205.623Z"/>
</mask>
<path d="M241.617 205.623C254.556 197.182 265.392 185.337 272.963 171.359C280.534 157.38 284.555 141.794 284.595 126.272C284.635 110.749 280.693 95.8751 273.191 83.2436C265.688 70.6122 254.909 60.6995 242.008 54.568L238.916 60.9805C250.769 66.6138 260.672 75.7209 267.565 87.3259C274.458 98.9309 278.08 112.596 278.043 126.857C278.006 141.118 274.312 155.438 267.356 168.28C260.4 181.123 250.445 192.005 238.557 199.76L241.617 205.623Z" fill="url(#paint12_linear_28_197)" stroke="white" stroke-width="1.54979" mask="url(#path-17-inside-2_28_197)"/>
<path d="M234.708 56.662C234.708 59.5792 237.071 61.9435 239.985 61.9435C242.9 61.9435 245.263 59.5792 245.263 56.662C245.263 53.7449 242.9 51.3806 239.985 51.3806C237.071 51.3806 234.708 53.7449 234.708 56.662Z" fill="url(#paint13_linear_28_197)" stroke="white" stroke-width="0.774893"/>
<path d="M234.708 202.955C234.708 205.872 237.071 208.236 239.985 208.236C242.9 208.236 245.263 205.872 245.263 202.955C245.263 200.038 242.9 197.674 239.985 197.674C237.071 197.674 234.708 200.038 234.708 202.955Z" fill="url(#paint14_linear_28_197)" stroke="white" stroke-width="0.774893"/>
</g>
<defs>
<filter id="filter0_d_28_197" x="337.36" y="218.88" width="655.457" height="38.7603" filterUnits="userSpaceOnUse" color-interpolation-filters="sRGB">
<feFlood flood-opacity="0" result="BackgroundImageFix"/>
<feColorMatrix in="SourceAlpha" type="matrix" values="0 0 0 0 0 0 0 0 0 0 0 0 0 0 0 0 0 0 127 0" result="hardAlpha"/>
<feOffset dx="4" dy="6"/>
<feGaussianBlur stdDeviation="2"/>
<feComposite in2="hardAlpha" operator="out"/>
<feColorMatrix type="matrix" values="0 0 0 0 0 0 0 0 0 0 0 0 0 0 0 0 0 0 0.25 0"/>
<feBlend mode="normal" in2="BackgroundImageFix" result="effect1_dropShadow_28_197"/>
<feBlend mode="normal" in="SourceGraphic" in2="effect1_dropShadow_28_197" result="shape"/>
</filter>
<filter id="filter1_i_28_197" x="79.2676" y="208.531" width="157.081" height="56.6191" filterUnits="userSpaceOnUse" color-interpolation-filters="sRGB">
<feFlood flood-opacity="0" result="BackgroundImageFix"/>
<feBlend mode="normal" in="SourceGraphic" in2="BackgroundImageFix" result="shape"/>
<feColorMatrix in="SourceAlpha" type="matrix" values="0 0 0 0 0 0 0 0 0 0 0 0 0 0 0 0 0 0 127 0" result="hardAlpha"/>
<feOffset dx="3.87446" dy="2.32468"/>
<feGaussianBlur stdDeviation="0.774893"/>
<feComposite in2="hardAlpha" operator="arithmetic" k2="-1" k3="1"/>
<feColorMatrix type="matrix" values="0 0 0 0 0 0 0 0 0 0 0 0 0 0 0 0 0 0 0.25 0"/>
<feBlend mode="normal" in2="shape" result="effect1_innerShadow_28_197"/>
</filter>
<filter id="filter2_i_28_197" x="80.6133" y="0" width="156.06" height="60.706" filterUnits="userSpaceOnUse" color-interpolation-filters="sRGB">
<feFlood flood-opacity="0" result="BackgroundImageFix"/>
<feBlend mode="normal" in="SourceGraphic" in2="BackgroundImageFix" result="shape"/>
<feColorMatrix in="SourceAlpha" type="matrix" values="0 0 0 0 0 0 0 0 0 0 0 0 0 0 0 0 0 0 127 0" result="hardAlpha"/>
<feOffset dx="3.87446" dy="2.32468"/>
<feGaussianBlur stdDeviation="0.774893"/>
<feComposite in2="hardAlpha" operator="arithmetic" k2="-1" k3="1"/>
<feColorMatrix type="matrix" values="0 0 0 0 0 0 0 0 0 0 0 0 0 0 0 0 0 0 0.25 0"/>
<feBlend mode="normal" in2="shape" result="effect1_innerShadow_28_197"/>
</filter>
<filter id="filter3_i_28_197" x="89.9102" y="67.0854" width="137.146" height="137.237" filterUnits="userSpaceOnUse" color-interpolation-filters="sRGB">
<feFlood flood-opacity="0" result="BackgroundImageFix"/>
<feBlend mode="normal" in="SourceGraphic" in2="BackgroundImageFix" result="shape"/>
<feColorMatrix in="SourceAlpha" type="matrix" values="0 0 0 0 0 0 0 0 0 0 0 0 0 0 0 0 0 0 127 0" result="hardAlpha"/>
<feOffset dx="3.87446" dy="2.32468"/>
<feGaussianBlur stdDeviation="0.774893"/>
<feComposite in2="hardAlpha" operator="arithmetic" k2="-1" k3="1"/>
<feColorMatrix type="matrix" values="0 0 0 0 0 0 0 0 0 0 0 0 0 0 0 0 0 0 0.25 0"/>
<feBlend mode="normal" in2="shape" result="effect1_innerShadow_28_197"/>
</filter>
<filter id="filter4_i_28_197" x="29.4023" y="50.9932" width="51.8252" height="159.181" filterUnits="userSpaceOnUse" color-interpolation-filters="sRGB">
<feFlood flood-opacity="0" result="BackgroundImageFix"/>
<feBlend mode="normal" in="SourceGraphic" in2="BackgroundImageFix" result="shape"/>
<feColorMatrix in="SourceAlpha" type="matrix" values="0 0 0 0 0 0 0 0 0 0 0 0 0 0 0 0 0 0 127 0" result="hardAlpha"/>
<feOffset dx="3.87446" dy="2.32468"/>
<feGaussianBlur stdDeviation="0.774893"/>
<feComposite in2="hardAlpha" operator="arithmetic" k2="-1" k3="1"/>
<feColorMatrix type="matrix" values="0 0 0 0 0 0 0 0 0 0 0 0 0 0 0 0 0 0 0.25 0"/>
<feBlend mode="normal" in2="shape" result="effect1_innerShadow_28_197"/>
</filter>
<filter id="filter5_i_28_197" x="234.32" y="50.9932" width="51.8252" height="159.181" filterUnits="userSpaceOnUse" color-interpolation-filters="sRGB">
<feFlood flood-opacity="0" result="BackgroundImageFix"/>
<feBlend mode="normal" in="SourceGraphic" in2="BackgroundImageFix" result="shape"/>
<feColorMatrix in="SourceAlpha" type="matrix" values="0 0 0 0 0 0 0 0 0 0 0 0 0 0 0 0 0 0 127 0" result="hardAlpha"/>
<feOffset dx="3.87446" dy="2.32468"/>
<feGaussianBlur stdDeviation="0.774893"/>
<feComposite in2="hardAlpha" operator="arithmetic" k2="-1" k3="1"/>
<feColorMatrix type="matrix" values="0 0 0 0 0 0 0 0 0 0 0 0 0 0 0 0 0 0 0.25 0"/>
<feBlend mode="normal" in2="shape" result="effect1_innerShadow_28_197"/>
</filter>
<linearGradient id="paint0_linear_28_197" x1="716" y1="38" x2="990" y2="38" gradientUnits="userSpaceOnUse">
<stop stop-color="#0055ED"/>
<stop offset="0.23" stop-color="#694CBE"/>
<stop offset="0.505" stop-color="#E64286"/>
<stop offset="0.715" stop-color="#8353BB"/>
</linearGradient>
<linearGradient id="paint1_linear_28_197" x1="336" y1="38" x2="610" y2="38" gradientUnits="userSpaceOnUse">
<stop stop-color="#0055ED"/>
<stop offset="0.23" stop-color="#694CBE"/>
<stop offset="0.505" stop-color="#E64286"/>
<stop offset="0.715" stop-color="#8353BB"/>
</linearGradient>
<linearGradient id="paint2_linear_28_197" x1="716" y1="64" x2="990" y2="64" gradientUnits="userSpaceOnUse">
<stop stop-color="#0055ED"/>
<stop offset="0.23" stop-color="#694CBE"/>
<stop offset="0.505" stop-color="#E64286"/>
<stop offset="0.715" stop-color="#8353BB"/>
</linearGradient>
<linearGradient id="paint3_linear_28_197" x1="336" y1="64" x2="610" y2="64" gradientUnits="userSpaceOnUse">
<stop stop-color="#0055ED"/>
<stop offset="0.23" stop-color="#694CBE"/>
<stop offset="0.505" stop-color="#E64286"/>
<stop offset="0.715" stop-color="#8353BB"/>
</linearGradient>
<linearGradient id="paint4_linear_28_197" x1="154.822" y1="205.331" x2="160.839" y2="264.116" gradientUnits="userSpaceOnUse">
<stop stop-color="#0055ED"/>
<stop offset="0.19" stop-color="#3554D9"/>
<stop offset="0.47" stop-color="#8353BB"/>
<stop offset="0.685" stop-color="#B04BA3"/>
<stop offset="0.945" stop-color="#E64286"/>
</linearGradient>
<linearGradient id="paint5_linear_28_197" x1="157.868" y1="59.1563" x2="157.868" y2="-0.0001297" gradientUnits="userSpaceOnUse">
<stop stop-color="#0055ED"/>
<stop offset="0.19" stop-color="#3554D9"/>
<stop offset="0.47" stop-color="#8353BB"/>
<stop offset="0.685" stop-color="#B04BA3"/>
<stop offset="0.945" stop-color="#E64286"/>
</linearGradient>
<linearGradient id="paint6_linear_28_197" x1="157.708" y1="67.0854" x2="157.708" y2="202.773" gradientUnits="userSpaceOnUse">
<stop stop-color="#0055ED"/>
<stop offset="0.19" stop-color="#3554D9"/>
<stop offset="0.47" stop-color="#8353BB"/>
<stop offset="0.685" stop-color="#B04BA3"/>
<stop offset="0.945" stop-color="#E64286"/>
</linearGradient>
<linearGradient id="paint7_linear_28_197" x1="157.708" y1="71.0762" x2="157.708" y2="198.782" gradientUnits="userSpaceOnUse">
<stop stop-color="#0055ED"/>
<stop offset="0.19" stop-color="#3554D9"/>
<stop offset="0.47" stop-color="#8353BB"/>
<stop offset="0.685" stop-color="#B04BA3"/>
<stop offset="0.945" stop-color="#E64286"/>
</linearGradient>
<linearGradient id="paint8_linear_28_197" x1="157.709" y1="91.5894" x2="157.709" y2="178.35" gradientUnits="userSpaceOnUse">
<stop stop-color="#0055ED"/>
<stop offset="0.19" stop-color="#3554D9"/>
<stop offset="0.47" stop-color="#8353BB"/>
<stop offset="0.685" stop-color="#B04BA3"/>
<stop offset="0.945" stop-color="#E64286"/>
</linearGradient>
<linearGradient id="paint9_linear_28_197" x1="180.013" y1="97.4555" x2="40.0155" y2="169.425" gradientUnits="userSpaceOnUse">
<stop stop-color="#0055ED"/>
<stop offset="0.19" stop-color="#3554D9"/>
<stop offset="0.47" stop-color="#8353BB"/>
<stop offset="0.685" stop-color="#B04BA3"/>
<stop offset="0.945" stop-color="#E64286"/>
</linearGradient>
<linearGradient id="paint10_linear_28_197" x1="74.0127" y1="50.9932" x2="74.0127" y2="62.3309" gradientUnits="userSpaceOnUse">
<stop stop-color="#0055ED"/>
<stop offset="0.19" stop-color="#3554D9"/>
<stop offset="0.47" stop-color="#8353BB"/>
<stop offset="0.685" stop-color="#B04BA3"/>
<stop offset="0.945" stop-color="#E64286"/>
</linearGradient>
<linearGradient id="paint11_linear_28_197" x1="74.0127" y1="197.286" x2="74.0127" y2="208.624" gradientUnits="userSpaceOnUse">
<stop stop-color="#0055ED"/>
<stop offset="0.19" stop-color="#3554D9"/>
<stop offset="0.47" stop-color="#8353BB"/>
<stop offset="0.685" stop-color="#B04BA3"/>
<stop offset="0.945" stop-color="#E64286"/>
</linearGradient>
<linearGradient id="paint12_linear_28_197" x1="133.985" y1="97.4555" x2="273.983" y2="169.425" gradientUnits="userSpaceOnUse">
<stop stop-color="#0055ED"/>
<stop offset="0.19" stop-color="#3554D9"/>
<stop offset="0.47" stop-color="#8353BB"/>
<stop offset="0.685" stop-color="#B04BA3"/>
<stop offset="0.945" stop-color="#E64286"/>
</linearGradient>
<linearGradient id="paint13_linear_28_197" x1="239.985" y1="50.9932" x2="239.985" y2="62.3309" gradientUnits="userSpaceOnUse">
<stop stop-color="#0055ED"/>
<stop offset="0.19" stop-color="#3554D9"/>
<stop offset="0.47" stop-color="#8353BB"/>
<stop offset="0.685" stop-color="#B04BA3"/>
<stop offset="0.945" stop-color="#E64286"/>
</linearGradient>
<linearGradient id="paint14_linear_28_197" x1="239.985" y1="197.286" x2="239.985" y2="208.624" gradientUnits="userSpaceOnUse">
<stop stop-color="#0055ED"/>
<stop offset="0.19" stop-color="#3554D9"/>
<stop offset="0.47" stop-color="#8353BB"/>
<stop offset="0.685" stop-color="#B04BA3"/>
<stop offset="0.945" stop-color="#E64286"/>
</linearGradient>
</defs>
</svg>
