<svg width="997" height="272" viewBox="0 0 997 272" fill="none" xmlns="http://www.w3.org/2000/svg">
<g filter="url(#filter0_d_28_172)">
<path d="M348.12 247.64C344.36 247.64 341.187 246.947 338.6 245.56L340.6 239.36C343.347 240.347 345.8 240.84 347.96 240.84C349.133 240.84 349.987 240.707 350.52 240.44C351.08 240.147 351.36 239.72 351.36 239.16C351.36 238.787 351.213 238.467 350.92 238.2C350.627 237.907 350.04 237.587 349.16 237.24C348.28 236.893 346.96 236.467 345.2 235.96C343.04 235.32 341.36 234.28 340.16 232.84C338.96 231.373 338.36 229.693 338.36 227.8C338.36 224.867 339.32 222.653 341.24 221.16C343.187 219.64 345.8 218.88 349.08 218.88C350.787 218.88 352.467 219.067 354.12 219.44C355.773 219.787 357.24 220.307 358.52 221L356.36 227.04C354.867 226.533 353.56 226.173 352.44 225.96C351.347 225.72 350.28 225.6 349.24 225.6C347.48 225.6 346.6 226.08 346.6 227.04C346.6 227.52 346.88 227.933 347.44 228.28C348.027 228.6 349.213 229.013 351 229.52C353.8 230.267 355.92 231.413 357.36 232.96C358.8 234.48 359.52 236.307 359.52 238.44C359.52 241.4 358.56 243.68 356.64 245.28C354.72 246.853 351.88 247.64 348.12 247.64ZM429.272 219.48H448.592V225.56H438.992V230.56H447.752V235.6H438.992V240.92H448.592V247H429.272V219.48ZM539.901 247.64C534.888 247.64 531.821 245.32 530.701 240.68L529.701 236.56H527.821V247H519.061V219.48H531.181C533.474 219.48 535.488 219.827 537.221 220.52C538.981 221.187 540.341 222.133 541.301 223.36C542.261 224.587 542.741 226 542.741 227.6C542.741 229.387 542.301 230.893 541.421 232.12C540.568 233.32 539.234 234.307 537.421 235.08C537.608 236.093 537.821 237.013 538.061 237.84C538.381 238.853 538.821 239.56 539.381 239.96C539.941 240.36 540.754 240.56 541.821 240.56C542.194 240.56 542.781 240.507 543.581 240.4V246.92C542.328 247.4 541.101 247.64 539.901 247.64ZM529.341 230.96C531.314 230.96 532.701 230.747 533.501 230.32C534.328 229.867 534.741 229.107 534.741 228.04C534.741 227.133 534.408 226.48 533.741 226.08C533.074 225.653 532.021 225.44 530.581 225.44H527.821V230.96H529.341ZM610.119 219.48H619.159L623.399 236.64L627.639 219.48H637.079L628.479 247H618.279L610.119 219.48ZM705.514 219.48H714.754V247H705.514V219.48ZM798.927 247.64C796.261 247.64 793.834 247.013 791.647 245.76C789.487 244.48 787.767 242.747 786.487 240.56C785.234 238.347 784.607 235.907 784.607 233.24C784.607 230.52 785.221 228.067 786.447 225.88C787.674 223.693 789.354 221.987 791.487 220.76C793.621 219.507 796.021 218.88 798.687 218.88C800.127 218.88 801.541 219.053 802.927 219.4C804.314 219.747 805.501 220.24 806.487 220.88L805.407 227.08C803.487 226.36 801.754 226 800.207 226C798.074 226 796.434 226.627 795.287 227.88C794.141 229.107 793.567 230.88 793.567 233.2C793.567 235.467 794.167 237.24 795.367 238.52C796.594 239.773 798.287 240.4 800.447 240.4C801.274 240.4 802.047 240.32 802.767 240.16C803.487 240 804.367 239.707 805.407 239.28L806.527 245.6C804.207 246.96 801.674 247.64 798.927 247.64ZM876.108 219.48H895.428V225.56H885.828V230.56H894.588V235.6H885.828V240.92H895.428V247H876.108V219.48ZM974.417 247.64C970.657 247.64 967.484 246.947 964.897 245.56L966.897 239.36C969.644 240.347 972.097 240.84 974.257 240.84C975.43 240.84 976.284 240.707 976.817 240.44C977.377 240.147 977.657 239.72 977.657 239.16C977.657 238.787 977.51 238.467 977.217 238.2C976.924 237.907 976.337 237.587 975.457 237.24C974.577 236.893 973.257 236.467 971.497 235.96C969.337 235.32 967.657 234.28 966.457 232.84C965.257 231.373 964.657 229.693 964.657 227.8C964.657 224.867 965.617 222.653 967.537 221.16C969.484 219.64 972.097 218.88 975.377 218.88C977.084 218.88 978.764 219.067 980.417 219.44C982.07 219.787 983.537 220.307 984.817 221L982.657 227.04C981.164 226.533 979.857 226.173 978.737 225.96C977.644 225.72 976.577 225.6 975.537 225.6C973.777 225.6 972.897 226.08 972.897 227.04C972.897 227.52 973.177 227.933 973.737 228.28C974.324 228.6 975.51 229.013 977.297 229.52C980.097 230.267 982.217 231.413 983.657 232.96C985.097 234.48 985.817 236.307 985.817 238.44C985.817 241.4 984.857 243.68 982.937 245.28C981.017 246.853 978.177 247.64 974.417 247.64Z" fill="#0055ED"/>
</g>
<path d="M383.784 131.488C390.824 136.352 395.304 145.312 395.304 159.136V180H379.304V159.136C379.304 145.568 374.312 141.088 365.608 141.088H356.648V180H340.52V141.088H332.2V126.752H340.52V90.4H356.648V126.752H362.28C368.936 126.752 374.056 122.272 374.056 108.704V90.4H390.056V109.344C390.056 118.944 387.752 126.24 383.784 131.488ZM406.885 150.56V90.4H422.885V150.56C422.885 162.72 428.389 166.944 435.045 166.944C441.573 166.944 447.077 162.72 447.077 150.56V90.4H463.077V150.56C463.077 171.424 449.893 181.92 435.045 181.92C419.813 181.92 406.885 171.424 406.885 150.56ZM535.947 133.536C542.347 138.4 545.547 145.696 545.547 153.504C545.547 167.584 536.715 180 514.827 180H481.675V141.728H473.355V127.264H481.675V90.4H513.163C534.539 90.4 543.243 102.816 543.243 115.616C543.243 122.272 540.683 128.672 535.947 133.536ZM513.163 105.12H497.035V127.264H513.547C523.147 127.264 527.115 122.4 527.115 116.128C527.115 109.856 523.147 105.12 513.163 105.12ZM497.035 165.024H514.827C525.195 165.024 529.419 160.16 529.419 153.504C529.419 146.848 525.195 141.728 515.339 141.728H497.035V165.024ZM647.551 155.936H604.415V144.8H647.551V155.936ZM705.825 90.4H765.729V105.248H743.841V180H727.841V105.248H705.825V90.4ZM796.395 141.984V165.152H833.515V180H780.395V141.984H772.075V127.52H780.395V90.4H817.899V105.12H796.395V127.52H823.403V141.984H796.395ZM886.477 181.92C859.213 181.92 838.605 161.568 838.605 135.2C838.605 108.704 859.085 88.48 886.477 88.48C900.301 88.48 912.589 93.984 920.269 103.584L909.133 114.208C903.629 107.552 895.309 103.328 886.477 103.328C868.429 103.328 854.605 117.024 854.605 135.2C854.605 153.376 868.429 166.944 886.477 166.944C895.309 166.944 903.629 162.848 909.133 156.192L920.269 166.816C912.461 176.288 900.173 181.92 886.477 181.92ZM973.194 128.544V90.4H989.194V180H973.194V143.648H949.77V180H933.77V143.648H925.45V128.544H933.77V90.4H949.77V128.544H973.194Z" fill="black"/>
<rect x="717" y="15" width="274" height="16" fill="url(#paint0_linear_28_172)"/>
<rect x="337" y="15" width="274" height="16" fill="url(#paint1_linear_28_172)"/>
<rect x="717" y="41" width="274" height="16" fill="url(#paint2_linear_28_172)"/>
<rect x="337" y="41" width="274" height="16" fill="url(#paint3_linear_28_172)"/>
<g filter="url(#filter1_d_28_172)">
<g filter="url(#filter2_i_28_172)">
<path d="M121.654 208.726C118.061 209.099 114.541 209.988 111.201 211.367L111.089 211.42L79.2687 227.526L94.1832 258.892L121.846 244.9L165.876 263.601L234.801 226.393L229.226 216.075L165.259 250.584L121.446 231.979L99.6167 243L94.7936 232.823L116.099 222.038C118.256 221.165 120.531 220.618 122.849 220.414C126.955 219.994 131.831 220.416 136.298 223.703L136.384 223.735L136.41 223.756C142.96 228.371 147.877 231.558 154.399 232.899C160.921 234.239 168.116 233.727 180.083 232.455L178.83 220.772C167.084 222.022 160.904 222.235 156.762 221.372C152.617 220.55 149.541 218.627 143.234 214.194L143.159 214.16C135.782 208.78 127.603 208.093 121.654 208.726Z" fill="url(#paint4_linear_28_172)"/>
</g>
<path d="M121.723 209.395L121.725 209.394C127.568 208.773 135.562 209.452 142.763 214.703L142.819 214.744L142.881 214.772L142.898 214.78C149.157 219.178 152.338 221.179 156.627 222.031C160.809 222.901 166.937 222.696 178.233 221.511L179.343 231.857C167.761 233.078 160.817 233.531 154.534 232.24C148.17 230.932 143.358 227.829 136.816 223.22L136.809 223.214L136.724 223.145L136.622 223.107L136.621 223.106C131.995 219.738 126.965 219.318 122.785 219.745C120.403 219.955 118.064 220.518 115.846 221.415L115.82 221.426L115.795 221.438L94.4901 232.223L93.9056 232.519L94.1862 233.111L99.0092 243.288L99.3044 243.911L99.9196 243.6L121.471 232.719L164.997 251.202L165.294 251.329L165.579 251.175L228.953 216.985L233.89 226.121L165.841 262.855L122.109 244.281L121.822 244.159L121.543 244.3L94.4945 257.981L80.1574 227.83L111.383 212.024L111.472 211.982C114.748 210.632 118.2 209.76 121.723 209.395Z" stroke="white" stroke-width="1.34446"/>
<g filter="url(#filter3_i_28_172)">
<path d="M191.141 59.156C194.745 59.1509 198.33 58.624 201.785 57.5917L201.902 57.5505L235.124 44.7536L223.501 11.997L194.62 23.1119L152.81 -0.000116162L80.6135 30.0278L85.1009 40.8722L152.101 13.0261L193.706 36.0205L216.495 27.2697L220.25 37.8965L198.006 46.465C195.776 47.1145 193.462 47.4276 191.141 47.3942C187.022 47.3942 182.224 46.4767 178.124 42.7482L178.042 42.7071L178.018 42.6835C171.984 37.4201 167.426 33.7446 161.088 31.7451C154.749 29.7455 147.555 29.5221 135.546 29.5691L135.605 41.3309C147.391 41.2839 153.548 41.7014 157.573 42.9835C161.603 44.2243 164.462 46.4532 170.274 51.5108L170.344 51.552C177.122 57.6622 185.171 59.1795 191.141 59.156Z" fill="url(#paint5_linear_28_172)"/>
</g>
<path d="M191.14 58.4837L191.138 58.4838C185.275 58.5069 177.409 57.0162 170.794 51.0527L170.743 51.0066L170.684 50.9719L170.667 50.9625C164.901 45.9451 161.947 43.6274 157.774 42.342C153.711 41.0485 147.607 40.6279 136.273 40.6565L136.222 30.239C147.842 30.2034 154.781 30.4603 160.886 32.3861C167.07 34.3371 171.532 37.9184 177.558 43.1747L177.565 43.1815L177.642 43.2589L177.74 43.3079L177.74 43.308C181.991 47.1344 186.943 48.0657 191.136 48.0664C193.523 48.1003 195.902 47.7781 198.194 47.1104L198.222 47.1025L198.248 47.0923L220.492 38.5238L221.102 38.2888L220.884 37.6725L217.129 27.0457L216.899 26.3945L216.254 26.6421L193.758 35.2807L152.426 12.4378L152.143 12.2809L151.843 12.4054L85.4646 39.9931L81.4912 30.3908L152.769 0.745136L194.295 23.7002L194.569 23.8518L194.862 23.7392L223.099 12.8722L234.272 44.3616L201.67 56.9196L201.577 56.9521C198.189 57.9629 194.674 58.4788 191.14 58.4837ZM191.141 59.156V59.1552V59.156Z" stroke="white" stroke-width="1.34446"/>
<g filter="url(#filter4_i_28_172)">
<path d="M95.4841 160.72C92.0994 152.544 90.3573 143.78 90.3573 134.929C90.3573 117.055 97.4532 99.9123 110.084 87.2732C122.715 74.6341 139.845 67.5336 157.708 67.5336C175.57 67.5336 192.701 74.6341 205.332 87.2732C217.962 99.9123 225.058 117.055 225.058 134.929C225.058 143.78 223.316 152.544 219.932 160.72C216.547 168.897 211.586 176.327 205.332 182.585C199.078 188.843 191.653 193.808 183.482 197.195C175.31 200.582 166.552 202.325 157.708 202.325C148.863 202.325 140.105 200.582 131.934 197.195C123.763 193.808 116.338 188.843 110.084 182.585C103.83 176.327 98.8688 168.897 95.4841 160.72ZM200.326 177.575C211.629 166.264 217.978 150.924 217.978 134.929C217.978 118.934 211.629 103.594 200.326 92.2835C189.023 80.9731 173.693 74.6189 157.708 74.6189C141.723 74.6189 126.393 80.9731 115.09 92.2835C103.787 103.594 97.4373 118.934 97.4373 134.929C97.4373 150.924 103.787 166.264 115.09 177.575C126.393 188.885 141.723 195.239 157.708 195.239C173.693 195.239 189.023 188.885 200.326 177.575Z" fill="url(#paint6_linear_28_172)" stroke="white" stroke-width="0.896308"/>
<path d="M157.708 198.334C149.791 198.334 142.92 191.384 138.006 179.838C133.109 168.331 130.239 152.431 130.239 134.93C130.239 117.428 133.109 101.528 138.006 90.0209C142.92 78.475 149.791 71.5248 157.708 71.5248C165.625 71.5248 172.496 78.475 177.41 90.0209C182.308 101.528 185.177 117.428 185.177 134.93C185.177 152.431 182.308 168.331 177.41 179.838C172.496 191.384 165.625 198.334 157.708 198.334ZM157.708 191.249C160.404 191.249 163.016 189.58 165.392 186.723C167.774 183.857 169.976 179.732 171.853 174.661C175.608 164.515 178.097 150.493 178.097 134.93C178.097 119.367 175.608 105.345 171.853 95.1982C169.976 90.127 167.774 86.0023 165.392 83.1366C163.016 80.2792 160.404 78.6101 157.708 78.6101C155.012 78.6101 152.4 80.2792 150.025 83.1366C147.642 86.0023 145.441 90.127 143.564 95.1982C139.808 105.345 137.319 119.367 137.319 134.93C137.319 150.493 139.808 164.515 143.564 174.661C145.441 179.732 147.642 183.857 150.025 186.723C152.4 189.58 155.012 191.249 157.708 191.249Z" fill="url(#paint7_linear_28_172)" stroke="white" stroke-width="0.896308"/>
<path d="M212.71 98.2753C210.436 100.182 207.888 101.942 205.064 103.556L205.064 103.556C193.364 110.255 177.69 114.057 161.002 114.057C141.369 114.057 123.19 108.782 111.3 99.8595C110.291 99.1016 109.314 98.3109 108.371 97.4779L113.115 92.2204C113.88 92.8923 114.69 93.5491 115.547 94.1912C126.159 102.151 142.854 106.972 161.002 106.972C176.481 106.972 190.95 103.471 201.544 97.4148C203.861 96.1026 206.056 94.588 208.106 92.8888L212.71 98.2753ZM201.546 172.534L201.545 172.534C190.951 166.469 176.481 162.976 161.002 162.976C142.855 162.976 126.161 167.796 115.549 175.756C114.691 176.389 113.879 177.043 113.114 177.719L108.37 172.476C109.29 171.658 110.267 170.856 111.299 170.08C123.19 161.166 141.369 155.891 161.002 155.891C177.69 155.891 193.364 159.693 205.064 166.383L205.066 166.384C207.765 167.914 210.323 169.682 212.708 171.666L208.106 177.05C206.172 175.442 203.985 173.937 201.546 172.534ZM94.3456 138.473V131.387H221.07V138.473H94.3456Z" fill="url(#paint8_linear_28_172)" stroke="white" stroke-width="0.896308"/>
</g>
<g filter="url(#filter5_i_28_172)">
<mask id="path-14-inside-1_28_172" fill="white">
<path d="M72.3804 205.623C59.4414 197.182 48.6056 185.337 41.0345 171.359C33.4634 157.38 29.4423 141.794 29.4021 126.272C29.362 110.749 33.3044 95.8751 40.8067 83.2436C48.3091 70.6122 59.0886 60.6995 71.9899 54.568L75.0815 60.9805C63.2286 66.6138 53.3251 75.7209 46.4324 87.3259C39.5397 98.9309 35.9177 112.596 35.9546 126.857C35.9915 141.118 39.6858 155.438 46.6417 168.28C53.5975 181.123 63.5527 192.005 75.4403 199.76L72.3804 205.623Z"/>
</mask>
<path d="M72.3804 205.623C59.4414 197.182 48.6056 185.337 41.0345 171.359C33.4634 157.38 29.4423 141.794 29.4021 126.272C29.362 110.749 33.3044 95.8751 40.8067 83.2436C48.3091 70.6122 59.0886 60.6995 71.9899 54.568L75.0815 60.9805C63.2286 66.6138 53.3251 75.7209 46.4324 87.3259C39.5397 98.9309 35.9177 112.596 35.9546 126.857C35.9915 141.118 39.6858 155.438 46.6417 168.28C53.5975 181.123 63.5527 192.005 75.4403 199.76L72.3804 205.623Z" fill="url(#paint9_linear_28_172)" stroke="white" stroke-width="1.79262" mask="url(#path-14-inside-1_28_172)"/>
<path d="M79.2288 56.6616C79.2288 59.5452 76.8928 61.8823 74.0118 61.8823C71.1308 61.8823 68.7948 59.5452 68.7948 56.6616C68.7948 53.7779 71.1308 51.4408 74.0118 51.4408C76.8928 51.4408 79.2288 53.7779 79.2288 56.6616Z" fill="url(#paint10_linear_28_172)" stroke="white" stroke-width="0.896308"/>
<path d="M79.2288 202.956C79.2288 205.839 76.8928 208.176 74.0118 208.176C71.1308 208.176 68.7948 205.839 68.7948 202.956C68.7948 200.072 71.1308 197.735 74.0118 197.735C76.8928 197.735 79.2288 200.072 79.2288 202.956Z" fill="url(#paint11_linear_28_172)" stroke="white" stroke-width="0.896308"/>
</g>
<g filter="url(#filter6_i_28_172)">
<mask id="path-17-inside-2_28_172" fill="white">
<path d="M241.62 205.623C254.559 197.181 265.394 185.337 272.965 171.358C280.537 157.379 284.558 141.794 284.598 126.271C284.638 110.749 280.696 95.8746 273.193 83.2431C265.691 70.6117 254.911 60.699 242.01 54.5675L238.918 60.98C250.771 66.6133 260.675 75.7204 267.568 87.3254C274.46 98.9304 278.082 112.596 278.045 126.857C278.009 141.118 274.314 155.437 267.358 168.28C260.402 181.123 250.447 192.005 238.56 199.76L241.62 205.623Z"/>
</mask>
<path d="M241.62 205.623C254.559 197.181 265.394 185.337 272.965 171.358C280.537 157.379 284.558 141.794 284.598 126.271C284.638 110.749 280.696 95.8746 273.193 83.2431C265.691 70.6117 254.911 60.699 242.01 54.5675L238.918 60.98C250.771 66.6133 260.675 75.7204 267.568 87.3254C274.46 98.9304 278.082 112.596 278.045 126.857C278.009 141.118 274.314 155.437 267.358 168.28C260.402 181.123 250.447 192.005 238.56 199.76L241.62 205.623Z" fill="url(#paint12_linear_28_172)" stroke="white" stroke-width="1.79262" mask="url(#path-17-inside-2_28_172)"/>
<path d="M234.771 56.6616C234.771 59.5452 237.107 61.8823 239.988 61.8823C242.869 61.8823 245.205 59.5452 245.205 56.6616C245.205 53.7779 242.869 51.4408 239.988 51.4408C237.107 51.4408 234.771 53.7779 234.771 56.6616Z" fill="url(#paint13_linear_28_172)" stroke="white" stroke-width="0.896308"/>
<path d="M234.771 202.956C234.771 205.839 237.107 208.176 239.988 208.176C242.869 208.176 245.205 205.839 245.205 202.956C245.205 200.072 242.869 197.735 239.988 197.735C237.107 197.735 234.771 200.072 234.771 202.956Z" fill="url(#paint14_linear_28_172)" stroke="white" stroke-width="0.896308"/>
</g>
</g>
<defs>
<filter id="filter0_d_28_172" x="338.36" y="218.88" width="655.457" height="38.7603" filterUnits="userSpaceOnUse" color-interpolation-filters="sRGB">
<feFlood flood-opacity="0" result="BackgroundImageFix"/>
<feColorMatrix in="SourceAlpha" type="matrix" values="0 0 0 0 0 0 0 0 0 0 0 0 0 0 0 0 0 0 127 0" result="hardAlpha"/>
<feOffset dx="4" dy="6"/>
<feGaussianBlur stdDeviation="2"/>
<feComposite in2="hardAlpha" operator="out"/>
<feColorMatrix type="matrix" values="0 0 0 0 0 0 0 0 0 0 0 0 0 0 0 0 0 0 0.25 0"/>
<feBlend mode="normal" in2="BackgroundImageFix" result="effect1_dropShadow_28_172"/>
<feBlend mode="normal" in="SourceGraphic" in2="effect1_dropShadow_28_172" result="shape"/>
</filter>
<filter id="filter1_d_28_172" x="27.6088" y="0" width="258.782" height="267.186" filterUnits="userSpaceOnUse" color-interpolation-filters="sRGB">
<feFlood flood-opacity="0" result="BackgroundImageFix"/>
<feColorMatrix in="SourceAlpha" type="matrix" values="0 0 0 0 0 0 0 0 0 0 0 0 0 0 0 0 0 0 127 0" result="hardAlpha"/>
<feOffset dy="1.79262"/>
<feGaussianBlur stdDeviation="0.896308"/>
<feComposite in2="hardAlpha" operator="out"/>
<feColorMatrix type="matrix" values="0 0 0 0 0 0 0 0 0 0 0 0 0 0 0 0 0 0 0.25 0"/>
<feBlend mode="normal" in2="BackgroundImageFix" result="effect1_dropShadow_28_172"/>
<feBlend mode="normal" in="SourceGraphic" in2="effect1_dropShadow_28_172" result="shape"/>
</filter>
<filter id="filter2_i_28_172" x="79.2686" y="208.531" width="157.325" height="56.862" filterUnits="userSpaceOnUse" color-interpolation-filters="sRGB">
<feFlood flood-opacity="0" result="BackgroundImageFix"/>
<feBlend mode="normal" in="SourceGraphic" in2="BackgroundImageFix" result="shape"/>
<feColorMatrix in="SourceAlpha" type="matrix" values="0 0 0 0 0 0 0 0 0 0 0 0 0 0 0 0 0 0 127 0" result="hardAlpha"/>
<feOffset dx="4.48154" dy="2.68893"/>
<feGaussianBlur stdDeviation="0.896308"/>
<feComposite in2="hardAlpha" operator="arithmetic" k2="-1" k3="1"/>
<feColorMatrix type="matrix" values="0 0 0 0 0 0 0 0 0 0 0 0 0 0 0 0 0 0 0.25 0"/>
<feBlend mode="normal" in2="shape" result="effect1_innerShadow_28_172"/>
</filter>
<filter id="filter3_i_28_172" x="80.6133" y="0" width="156.303" height="60.9489" filterUnits="userSpaceOnUse" color-interpolation-filters="sRGB">
<feFlood flood-opacity="0" result="BackgroundImageFix"/>
<feBlend mode="normal" in="SourceGraphic" in2="BackgroundImageFix" result="shape"/>
<feColorMatrix in="SourceAlpha" type="matrix" values="0 0 0 0 0 0 0 0 0 0 0 0 0 0 0 0 0 0 127 0" result="hardAlpha"/>
<feOffset dx="4.48154" dy="2.68893"/>
<feGaussianBlur stdDeviation="0.896308"/>
<feComposite in2="hardAlpha" operator="arithmetic" k2="-1" k3="1"/>
<feColorMatrix type="matrix" values="0 0 0 0 0 0 0 0 0 0 0 0 0 0 0 0 0 0 0.25 0"/>
<feBlend mode="normal" in2="shape" result="effect1_innerShadow_28_172"/>
</filter>
<filter id="filter4_i_28_172" x="89.9092" y="67.0854" width="137.39" height="137.48" filterUnits="userSpaceOnUse" color-interpolation-filters="sRGB">
<feFlood flood-opacity="0" result="BackgroundImageFix"/>
<feBlend mode="normal" in="SourceGraphic" in2="BackgroundImageFix" result="shape"/>
<feColorMatrix in="SourceAlpha" type="matrix" values="0 0 0 0 0 0 0 0 0 0 0 0 0 0 0 0 0 0 127 0" result="hardAlpha"/>
<feOffset dx="4.48154" dy="2.68893"/>
<feGaussianBlur stdDeviation="0.896308"/>
<feComposite in2="hardAlpha" operator="arithmetic" k2="-1" k3="1"/>
<feColorMatrix type="matrix" values="0 0 0 0 0 0 0 0 0 0 0 0 0 0 0 0 0 0 0.25 0"/>
<feBlend mode="normal" in2="shape" result="effect1_innerShadow_28_172"/>
</filter>
<filter id="filter5_i_28_172" x="29.4014" y="50.9927" width="52.068" height="159.424" filterUnits="userSpaceOnUse" color-interpolation-filters="sRGB">
<feFlood flood-opacity="0" result="BackgroundImageFix"/>
<feBlend mode="normal" in="SourceGraphic" in2="BackgroundImageFix" result="shape"/>
<feColorMatrix in="SourceAlpha" type="matrix" values="0 0 0 0 0 0 0 0 0 0 0 0 0 0 0 0 0 0 127 0" result="hardAlpha"/>
<feOffset dx="4.48154" dy="2.68893"/>
<feGaussianBlur stdDeviation="0.896308"/>
<feComposite in2="hardAlpha" operator="arithmetic" k2="-1" k3="1"/>
<feColorMatrix type="matrix" values="0 0 0 0 0 0 0 0 0 0 0 0 0 0 0 0 0 0 0.25 0"/>
<feBlend mode="normal" in2="shape" result="effect1_innerShadow_28_172"/>
</filter>
<filter id="filter6_i_28_172" x="234.323" y="50.9927" width="52.068" height="159.424" filterUnits="userSpaceOnUse" color-interpolation-filters="sRGB">
<feFlood flood-opacity="0" result="BackgroundImageFix"/>
<feBlend mode="normal" in="SourceGraphic" in2="BackgroundImageFix" result="shape"/>
<feColorMatrix in="SourceAlpha" type="matrix" values="0 0 0 0 0 0 0 0 0 0 0 0 0 0 0 0 0 0 127 0" result="hardAlpha"/>
<feOffset dx="4.48154" dy="2.68893"/>
<feGaussianBlur stdDeviation="0.896308"/>
<feComposite in2="hardAlpha" operator="arithmetic" k2="-1" k3="1"/>
<feColorMatrix type="matrix" values="0 0 0 0 0 0 0 0 0 0 0 0 0 0 0 0 0 0 0.25 0"/>
<feBlend mode="normal" in2="shape" result="effect1_innerShadow_28_172"/>
</filter>
<linearGradient id="paint0_linear_28_172" x1="717" y1="23" x2="991" y2="23" gradientUnits="userSpaceOnUse">
<stop stop-color="#0055ED"/>
<stop offset="0.51" stop-color="#50E3C2"/>
<stop offset="1" stop-color="#2292DB"/>
</linearGradient>
<linearGradient id="paint1_linear_28_172" x1="337" y1="23" x2="611" y2="23" gradientUnits="userSpaceOnUse">
<stop stop-color="#0055ED"/>
<stop offset="0.51" stop-color="#50E3C2"/>
<stop offset="1" stop-color="#2292DB"/>
</linearGradient>
<linearGradient id="paint2_linear_28_172" x1="717" y1="49" x2="991" y2="49" gradientUnits="userSpaceOnUse">
<stop stop-color="#0055ED"/>
<stop offset="0.51" stop-color="#50E3C2"/>
<stop offset="1" stop-color="#2292DB"/>
</linearGradient>
<linearGradient id="paint3_linear_28_172" x1="337" y1="49" x2="611" y2="49" gradientUnits="userSpaceOnUse">
<stop stop-color="#0055ED"/>
<stop offset="0.51" stop-color="#50E3C2"/>
<stop offset="1" stop-color="#2292DB"/>
</linearGradient>
<linearGradient id="paint4_linear_28_172" x1="113.063" y1="214.988" x2="144.983" y2="283.551" gradientUnits="userSpaceOnUse">
<stop stop-color="#0055ED"/>
<stop offset="0.16" stop-color="#2292DB"/>
<stop offset="0.41" stop-color="#50E3C2"/>
<stop offset="0.645" stop-color="#3BBFCD"/>
<stop offset="0.935" stop-color="#2292DB"/>
</linearGradient>
<linearGradient id="paint5_linear_28_172" x1="200.304" y1="53.7955" x2="175.44" y2="-17.6917" gradientUnits="userSpaceOnUse">
<stop stop-color="#0055ED"/>
<stop offset="0.16" stop-color="#2292DB"/>
<stop offset="0.41" stop-color="#50E3C2"/>
<stop offset="0.645" stop-color="#3BBFCD"/>
<stop offset="0.935" stop-color="#2292DB"/>
</linearGradient>
<linearGradient id="paint6_linear_28_172" x1="120.467" y1="79.3814" x2="211.954" y2="180.021" gradientUnits="userSpaceOnUse">
<stop stop-color="#0055ED"/>
<stop offset="0.16" stop-color="#2292DB"/>
<stop offset="0.41" stop-color="#50E3C2"/>
<stop offset="0.645" stop-color="#3BBFCD"/>
<stop offset="0.935" stop-color="#2292DB"/>
</linearGradient>
<linearGradient id="paint7_linear_28_172" x1="142.374" y1="82.6493" x2="209.973" y2="115.183" gradientUnits="userSpaceOnUse">
<stop stop-color="#0055ED"/>
<stop offset="0.16" stop-color="#2292DB"/>
<stop offset="0.41" stop-color="#50E3C2"/>
<stop offset="0.645" stop-color="#3BBFCD"/>
<stop offset="0.935" stop-color="#2292DB"/>
</linearGradient>
<linearGradient id="paint8_linear_28_172" x1="122.657" y1="99.452" x2="175.201" y2="184.53" gradientUnits="userSpaceOnUse">
<stop stop-color="#0055ED"/>
<stop offset="0.16" stop-color="#2292DB"/>
<stop offset="0.41" stop-color="#50E3C2"/>
<stop offset="0.645" stop-color="#3BBFCD"/>
<stop offset="0.935" stop-color="#2292DB"/>
</linearGradient>
<linearGradient id="paint9_linear_28_172" x1="145.329" y1="61.186" x2="79.2757" y2="212.656" gradientUnits="userSpaceOnUse">
<stop stop-color="#0055ED"/>
<stop offset="0.16" stop-color="#2292DB"/>
<stop offset="0.41" stop-color="#50E3C2"/>
<stop offset="0.645" stop-color="#3BBFCD"/>
<stop offset="0.935" stop-color="#2292DB"/>
</linearGradient>
<linearGradient id="paint10_linear_28_172" x1="70.9" y1="52.0201" x2="78.5445" y2="60.4294" gradientUnits="userSpaceOnUse">
<stop stop-color="#0055ED"/>
<stop offset="0.16" stop-color="#2292DB"/>
<stop offset="0.41" stop-color="#50E3C2"/>
<stop offset="0.645" stop-color="#3BBFCD"/>
<stop offset="0.935" stop-color="#2292DB"/>
</linearGradient>
<linearGradient id="paint11_linear_28_172" x1="70.9" y1="198.314" x2="78.5445" y2="206.723" gradientUnits="userSpaceOnUse">
<stop stop-color="#0055ED"/>
<stop offset="0.16" stop-color="#2292DB"/>
<stop offset="0.41" stop-color="#50E3C2"/>
<stop offset="0.645" stop-color="#3BBFCD"/>
<stop offset="0.935" stop-color="#2292DB"/>
</linearGradient>
<linearGradient id="paint12_linear_28_172" x1="168.671" y1="61.1855" x2="234.724" y2="212.655" gradientUnits="userSpaceOnUse">
<stop stop-color="#0055ED"/>
<stop offset="0.16" stop-color="#2292DB"/>
<stop offset="0.41" stop-color="#50E3C2"/>
<stop offset="0.645" stop-color="#3BBFCD"/>
<stop offset="0.935" stop-color="#2292DB"/>
</linearGradient>
<linearGradient id="paint13_linear_28_172" x1="243.1" y1="52.0201" x2="235.456" y2="60.4294" gradientUnits="userSpaceOnUse">
<stop stop-color="#0055ED"/>
<stop offset="0.16" stop-color="#2292DB"/>
<stop offset="0.41" stop-color="#50E3C2"/>
<stop offset="0.645" stop-color="#3BBFCD"/>
<stop offset="0.935" stop-color="#2292DB"/>
</linearGradient>
<linearGradient id="paint14_linear_28_172" x1="243.1" y1="198.314" x2="235.456" y2="206.723" gradientUnits="userSpaceOnUse">
<stop stop-color="#0055ED"/>
<stop offset="0.16" stop-color="#2292DB"/>
<stop offset="0.41" stop-color="#50E3C2"/>
<stop offset="0.645" stop-color="#3BBFCD"/>
<stop offset="0.935" stop-color="#2292DB"/>
</linearGradient>
</defs>
</svg>
