<svg width="744" height="242" viewBox="0 0 744 242" fill="none" xmlns="http://www.w3.org/2000/svg">
<g filter="url(#filter0_d_29_73)">
<path d="M19.12 217.64C15.36 217.64 12.1867 216.947 9.6 215.56L11.6 209.36C14.3467 210.347 16.8 210.84 18.96 210.84C20.1333 210.84 20.9867 210.707 21.52 210.44C22.08 210.147 22.36 209.72 22.36 209.16C22.36 208.787 22.2133 208.467 21.92 208.2C21.6267 207.907 21.04 207.587 20.16 207.24C19.28 206.893 17.96 206.467 16.2 205.96C14.04 205.32 12.36 204.28 11.16 202.84C9.96 201.373 9.36 199.693 9.36 197.8C9.36 194.867 10.32 192.653 12.24 191.16C14.1867 189.64 16.8 188.88 20.08 188.88C21.7867 188.88 23.4667 189.067 25.12 189.44C26.7733 189.787 28.24 190.307 29.52 191L27.36 197.04C25.8667 196.533 24.56 196.173 23.44 195.96C22.3467 195.72 21.28 195.6 20.24 195.6C18.48 195.6 17.6 196.08 17.6 197.04C17.6 197.52 17.88 197.933 18.44 198.28C19.0267 198.6 20.2133 199.013 22 199.52C24.8 200.267 26.92 201.413 28.36 202.96C29.8 204.48 30.52 206.307 30.52 208.44C30.52 211.4 29.56 213.68 27.64 215.28C25.72 216.853 22.88 217.64 19.12 217.64ZM100.272 189.48H119.592V195.56H109.992V200.56H118.752V205.6H109.992V210.92H119.592V217H100.272V189.48ZM210.901 217.64C205.888 217.64 202.821 215.32 201.701 210.68L200.701 206.56H198.821V217H190.061V189.48H202.181C204.474 189.48 206.488 189.827 208.221 190.52C209.981 191.187 211.341 192.133 212.301 193.36C213.261 194.587 213.741 196 213.741 197.6C213.741 199.387 213.301 200.893 212.421 202.12C211.568 203.32 210.234 204.307 208.421 205.08C208.608 206.093 208.821 207.013 209.061 207.84C209.381 208.853 209.821 209.56 210.381 209.96C210.941 210.36 211.754 210.56 212.821 210.56C213.194 210.56 213.781 210.507 214.581 210.4V216.92C213.328 217.4 212.101 217.64 210.901 217.64ZM200.341 200.96C202.314 200.96 203.701 200.747 204.501 200.32C205.328 199.867 205.741 199.107 205.741 198.04C205.741 197.133 205.408 196.48 204.741 196.08C204.074 195.653 203.021 195.44 201.581 195.44H198.821V200.96H200.341ZM281.119 189.48H290.159L294.399 206.64L298.639 189.48H308.079L299.479 217H289.279L281.119 189.48ZM376.514 189.48H385.754V217H376.514V189.48ZM469.927 217.64C467.261 217.64 464.834 217.013 462.647 215.76C460.487 214.48 458.767 212.747 457.487 210.56C456.234 208.347 455.607 205.907 455.607 203.24C455.607 200.52 456.221 198.067 457.447 195.88C458.674 193.693 460.354 191.987 462.487 190.76C464.621 189.507 467.021 188.88 469.687 188.88C471.127 188.88 472.541 189.053 473.927 189.4C475.314 189.747 476.501 190.24 477.487 190.88L476.407 197.08C474.487 196.36 472.754 196 471.207 196C469.074 196 467.434 196.627 466.287 197.88C465.141 199.107 464.567 200.88 464.567 203.2C464.567 205.467 465.167 207.24 466.367 208.52C467.594 209.773 469.287 210.4 471.447 210.4C472.274 210.4 473.047 210.32 473.767 210.16C474.487 210 475.367 209.707 476.407 209.28L477.527 215.6C475.207 216.96 472.674 217.64 469.927 217.64ZM547.108 189.48H566.428V195.56H556.828V200.56H565.588V205.6H556.828V210.92H566.428V217H547.108V189.48ZM645.417 217.64C641.657 217.64 638.484 216.947 635.897 215.56L637.897 209.36C640.644 210.347 643.097 210.84 645.257 210.84C646.43 210.84 647.284 210.707 647.817 210.44C648.377 210.147 648.657 209.72 648.657 209.16C648.657 208.787 648.51 208.467 648.217 208.2C647.924 207.907 647.337 207.587 646.457 207.24C645.577 206.893 644.257 206.467 642.497 205.96C640.337 205.32 638.657 204.28 637.457 202.84C636.257 201.373 635.657 199.693 635.657 197.8C635.657 194.867 636.617 192.653 638.537 191.16C640.484 189.64 643.097 188.88 646.377 188.88C648.084 188.88 649.764 189.067 651.417 189.44C653.07 189.787 654.537 190.307 655.817 191L653.657 197.04C652.164 196.533 650.857 196.173 649.737 195.96C648.644 195.72 647.577 195.6 646.537 195.6C644.777 195.6 643.897 196.08 643.897 197.04C643.897 197.52 644.177 197.933 644.737 198.28C645.324 198.6 646.51 199.013 648.297 199.52C651.097 200.267 653.217 201.413 654.657 202.96C656.097 204.48 656.817 206.307 656.817 208.44C656.817 211.4 655.857 213.68 653.937 215.28C652.017 216.853 649.177 217.64 645.417 217.64Z" fill="#0055ED"/>
</g>
<path d="M54.784 116.488C61.824 121.352 66.304 130.312 66.304 144.136V165H50.304V144.136C50.304 130.568 45.312 126.088 36.608 126.088H27.648V165H11.52V126.088H3.2V111.752H11.52V75.4H27.648V111.752H33.28C39.936 111.752 45.056 107.272 45.056 93.704V75.4H61.056V94.344C61.056 103.944 58.752 111.24 54.784 116.488ZM77.885 135.56V75.4H93.885V135.56C93.885 147.72 99.389 151.944 106.045 151.944C112.573 151.944 118.077 147.72 118.077 135.56V75.4H134.077V135.56C134.077 156.424 120.893 166.92 106.045 166.92C90.813 166.92 77.885 156.424 77.885 135.56ZM206.947 118.536C213.347 123.4 216.547 130.696 216.547 138.504C216.547 152.584 207.715 165 185.827 165H152.675V126.728H144.355V112.264H152.675V75.4H184.163C205.539 75.4 214.243 87.816 214.243 100.616C214.243 107.272 211.683 113.672 206.947 118.536ZM184.163 90.12H168.035V112.264H184.547C194.147 112.264 198.115 107.4 198.115 101.128C198.115 94.856 194.147 90.12 184.163 90.12ZM168.035 150.024H185.827C196.195 150.024 200.419 145.16 200.419 138.504C200.419 131.848 196.195 126.728 186.339 126.728H168.035V150.024ZM318.551 140.936H275.415V129.8H318.551V140.936ZM376.825 75.4H436.729V90.248H414.841V165H398.841V90.248H376.825V75.4ZM467.395 126.984V150.152H504.515V165H451.395V126.984H443.075V112.52H451.395V75.4H488.899V90.12H467.395V112.52H494.403V126.984H467.395ZM557.477 166.92C530.213 166.92 509.605 146.568 509.605 120.2C509.605 93.704 530.085 73.48 557.477 73.48C571.301 73.48 583.589 78.984 591.269 88.584L580.133 99.208C574.629 92.552 566.309 88.328 557.477 88.328C539.429 88.328 525.605 102.024 525.605 120.2C525.605 138.376 539.429 151.944 557.477 151.944C566.309 151.944 574.629 147.848 580.133 141.192L591.269 151.816C583.461 161.288 571.173 166.92 557.477 166.92ZM644.194 113.544V75.4H660.194V165H644.194V128.648H620.77V165H604.77V128.648H596.45V113.544H604.77V75.4H620.77V113.544H644.194Z" fill="black"/>
<rect x="388" width="274" height="16" fill="url(#paint0_linear_29_73)"/>
<rect x="8" width="274" height="16" fill="url(#paint1_linear_29_73)"/>
<rect x="388" y="26" width="274" height="16" fill="url(#paint2_linear_29_73)"/>
<rect x="8" y="26" width="274" height="16" fill="url(#paint3_linear_29_73)"/>
<defs>
<filter id="filter0_d_29_73" x="9.36035" y="188.88" width="655.457" height="38.7598" filterUnits="userSpaceOnUse" color-interpolation-filters="sRGB">
<feFlood flood-opacity="0" result="BackgroundImageFix"/>
<feColorMatrix in="SourceAlpha" type="matrix" values="0 0 0 0 0 0 0 0 0 0 0 0 0 0 0 0 0 0 127 0" result="hardAlpha"/>
<feOffset dx="4" dy="6"/>
<feGaussianBlur stdDeviation="2"/>
<feComposite in2="hardAlpha" operator="out"/>
<feColorMatrix type="matrix" values="0 0 0 0 0 0 0 0 0 0 0 0 0 0 0 0 0 0 0.25 0"/>
<feBlend mode="normal" in2="BackgroundImageFix" result="effect1_dropShadow_29_73"/>
<feBlend mode="normal" in="SourceGraphic" in2="effect1_dropShadow_29_73" result="shape"/>
</filter>
<linearGradient id="paint0_linear_29_73" x1="388" y1="8" x2="662" y2="8" gradientUnits="userSpaceOnUse">
<stop stop-color="#0055ED"/>
<stop offset="0.23" stop-color="#694CBE"/>
<stop offset="0.505" stop-color="#E64286"/>
<stop offset="0.715" stop-color="#8353BB"/>
</linearGradient>
<linearGradient id="paint1_linear_29_73" x1="8" y1="8" x2="282" y2="8" gradientUnits="userSpaceOnUse">
<stop stop-color="#0055ED"/>
<stop offset="0.23" stop-color="#694CBE"/>
<stop offset="0.505" stop-color="#E64286"/>
<stop offset="0.715" stop-color="#8353BB"/>
</linearGradient>
<linearGradient id="paint2_linear_29_73" x1="388" y1="34" x2="662" y2="34" gradientUnits="userSpaceOnUse">
<stop stop-color="#0055ED"/>
<stop offset="0.23" stop-color="#694CBE"/>
<stop offset="0.505" stop-color="#E64286"/>
<stop offset="0.715" stop-color="#8353BB"/>
</linearGradient>
<linearGradient id="paint3_linear_29_73" x1="8" y1="34" x2="282" y2="34" gradientUnits="userSpaceOnUse">
<stop stop-color="#0055ED"/>
<stop offset="0.23" stop-color="#694CBE"/>
<stop offset="0.505" stop-color="#E64286"/>
<stop offset="0.715" stop-color="#8353BB"/>
</linearGradient>
</defs>
</svg>
