<svg width="702" height="898" viewBox="0 0 702 898" fill="none" xmlns="http://www.w3.org/2000/svg">
<g filter="url(#filter0_d_28_123)">
<path d="M215.12 873.64C211.36 873.64 208.187 872.947 205.6 871.56L207.6 865.36C210.347 866.347 212.8 866.84 214.96 866.84C216.133 866.84 216.987 866.707 217.52 866.44C218.08 866.147 218.36 865.72 218.36 865.16C218.36 864.787 218.213 864.467 217.92 864.2C217.627 863.907 217.04 863.587 216.16 863.24C215.28 862.893 213.96 862.467 212.2 861.96C210.04 861.32 208.36 860.28 207.16 858.84C205.96 857.373 205.36 855.693 205.36 853.8C205.36 850.867 206.32 848.653 208.24 847.16C210.187 845.64 212.8 844.88 216.08 844.88C217.787 844.88 219.467 845.067 221.12 845.44C222.773 845.787 224.24 846.307 225.52 847L223.36 853.04C221.867 852.533 220.56 852.173 219.44 851.96C218.347 851.72 217.28 851.6 216.24 851.6C214.48 851.6 213.6 852.08 213.6 853.04C213.6 853.52 213.88 853.933 214.44 854.28C215.027 854.6 216.213 855.013 218 855.52C220.8 856.267 222.92 857.413 224.36 858.96C225.8 860.48 226.52 862.307 226.52 864.44C226.52 867.4 225.56 869.68 223.64 871.28C221.72 872.853 218.88 873.64 215.12 873.64ZM245.072 845.48H264.392V851.56H254.792V856.56H263.552V861.6H254.792V866.92H264.392V873H245.072V845.48ZM304.501 873.64C299.488 873.64 296.421 871.32 295.301 866.68L294.301 862.56H292.421V873H283.661V845.48H295.781C298.074 845.48 300.088 845.827 301.821 846.52C303.581 847.187 304.941 848.133 305.901 849.36C306.861 850.587 307.341 852 307.341 853.6C307.341 855.387 306.901 856.893 306.021 858.12C305.168 859.32 303.834 860.307 302.021 861.08C302.208 862.093 302.421 863.013 302.661 863.84C302.981 864.853 303.421 865.56 303.981 865.96C304.541 866.36 305.354 866.56 306.421 866.56C306.794 866.56 307.381 866.507 308.181 866.4V872.92C306.928 873.4 305.701 873.64 304.501 873.64ZM293.941 856.96C295.914 856.96 297.301 856.747 298.101 856.32C298.928 855.867 299.341 855.107 299.341 854.04C299.341 853.133 299.008 852.48 298.341 852.08C297.674 851.653 296.621 851.44 295.181 851.44H292.421V856.96H293.941ZM323.519 845.48H332.559L336.799 862.64L341.039 845.48H350.479L341.879 873H331.679L323.519 845.48ZM367.714 845.48H376.954V873H367.714V845.48ZM409.927 873.64C407.261 873.64 404.834 873.013 402.647 871.76C400.487 870.48 398.767 868.747 397.487 866.56C396.234 864.347 395.607 861.907 395.607 859.24C395.607 856.52 396.221 854.067 397.447 851.88C398.674 849.693 400.354 847.987 402.487 846.76C404.621 845.507 407.021 844.88 409.687 844.88C411.127 844.88 412.541 845.053 413.927 845.4C415.314 845.747 416.501 846.24 417.487 846.88L416.407 853.08C414.487 852.36 412.754 852 411.207 852C409.074 852 407.434 852.627 406.287 853.88C405.141 855.107 404.567 856.88 404.567 859.2C404.567 861.467 405.167 863.24 406.367 864.52C407.594 865.773 409.287 866.4 411.447 866.4C412.274 866.4 413.047 866.32 413.767 866.16C414.487 866 415.367 865.707 416.407 865.28L417.527 871.6C415.207 872.96 412.674 873.64 409.927 873.64ZM435.908 845.48H455.228V851.56H445.628V856.56H454.388V861.6H445.628V866.92H455.228V873H435.908V845.48ZM483.017 873.64C479.257 873.64 476.084 872.947 473.497 871.56L475.497 865.36C478.244 866.347 480.697 866.84 482.857 866.84C484.03 866.84 484.884 866.707 485.417 866.44C485.977 866.147 486.257 865.72 486.257 865.16C486.257 864.787 486.11 864.467 485.817 864.2C485.524 863.907 484.937 863.587 484.057 863.24C483.177 862.893 481.857 862.467 480.097 861.96C477.937 861.32 476.257 860.28 475.057 858.84C473.857 857.373 473.257 855.693 473.257 853.8C473.257 850.867 474.217 848.653 476.137 847.16C478.084 845.64 480.697 844.88 483.977 844.88C485.684 844.88 487.364 845.067 489.017 845.44C490.67 845.787 492.137 846.307 493.417 847L491.257 853.04C489.764 852.533 488.457 852.173 487.337 851.96C486.244 851.72 485.177 851.6 484.137 851.6C482.377 851.6 481.497 852.08 481.497 853.04C481.497 853.52 481.777 853.933 482.337 854.28C482.924 854.6 484.11 855.013 485.897 855.52C488.697 856.267 490.817 857.413 492.257 858.96C493.697 860.48 494.417 862.307 494.417 864.44C494.417 867.4 493.457 869.68 491.537 871.28C489.617 872.853 486.777 873.64 483.017 873.64Z" fill="#0055ED"/>
</g>
<path d="M87.784 745.488C94.824 750.352 99.304 759.312 99.304 773.136V794H83.304V773.136C83.304 759.568 78.312 755.088 69.608 755.088H60.648V794H44.52V755.088H36.2V740.752H44.52V704.4H60.648V740.752H66.28C72.936 740.752 78.056 736.272 78.056 722.704V704.4H94.056V723.344C94.056 732.944 91.752 740.24 87.784 745.488ZM110.885 764.56V704.4H126.885V764.56C126.885 776.72 132.389 780.944 139.045 780.944C145.573 780.944 151.077 776.72 151.077 764.56V704.4H167.077V764.56C167.077 785.424 153.893 795.92 139.045 795.92C123.813 795.92 110.885 785.424 110.885 764.56ZM239.947 747.536C246.347 752.4 249.547 759.696 249.547 767.504C249.547 781.584 240.715 794 218.827 794H185.675V755.728H177.355V741.264H185.675V704.4H217.163C238.539 704.4 247.243 716.816 247.243 729.616C247.243 736.272 244.683 742.672 239.947 747.536ZM217.163 719.12H201.035V741.264H217.547C227.147 741.264 231.115 736.4 231.115 730.128C231.115 723.856 227.147 719.12 217.163 719.12ZM201.035 779.024H218.827C229.195 779.024 233.419 774.16 233.419 767.504C233.419 760.848 229.195 755.728 219.339 755.728H201.035V779.024ZM351.551 769.936H308.415V758.8H351.551V769.936ZM409.825 704.4H469.729V719.248H447.841V794H431.841V719.248H409.825V704.4ZM500.395 755.984V779.152H537.515V794H484.395V755.984H476.075V741.52H484.395V704.4H521.899V719.12H500.395V741.52H527.403V755.984H500.395ZM590.477 795.92C563.213 795.92 542.605 775.568 542.605 749.2C542.605 722.704 563.085 702.48 590.477 702.48C604.301 702.48 616.589 707.984 624.269 717.584L613.133 728.208C607.629 721.552 599.309 717.328 590.477 717.328C572.429 717.328 558.605 731.024 558.605 749.2C558.605 767.376 572.429 780.944 590.477 780.944C599.309 780.944 607.629 776.848 613.133 770.192L624.269 780.816C616.461 790.288 604.173 795.92 590.477 795.92ZM677.194 742.544V704.4H693.194V794H677.194V757.648H653.77V794H637.77V757.648H629.45V742.544H637.77V704.4H653.77V742.544H677.194Z" fill="black"/>
<rect x="421" y="629" width="274" height="16" fill="url(#paint0_linear_28_123)"/>
<rect x="41" y="629" width="274" height="16" fill="url(#paint1_linear_28_123)"/>
<rect x="421" y="655" width="274" height="16" fill="url(#paint2_linear_28_123)"/>
<rect x="41" y="655" width="274" height="16" fill="url(#paint3_linear_28_123)"/>
<g filter="url(#filter1_d_28_123)">
<g filter="url(#filter2_i_28_123)">
<path d="M271.636 465.746C263.613 466.577 255.753 468.562 248.296 471.638L248.045 471.756L176.995 507.696L210.297 577.685L272.065 546.462L370.377 588.191L524.276 505.168L511.827 482.143L369 559.145L271.172 517.631L222.429 542.224L211.66 519.515L259.231 495.45C264.048 493.502 269.128 492.281 274.304 491.826C283.471 490.889 294.359 491.83 304.333 499.164L304.525 499.237L304.583 499.284C319.208 509.581 330.187 516.694 344.751 519.684C359.314 522.674 375.378 521.532 402.1 518.693L399.302 492.626C373.075 495.414 359.275 495.89 350.026 493.963C340.772 492.13 333.903 487.838 319.82 477.947L319.654 477.871C303.18 465.866 284.919 464.334 271.636 465.746Z" fill="url(#paint4_linear_28_123)"/>
</g>
<path d="M271.791 467.238L271.794 467.237C284.842 465.851 302.692 467.366 318.771 479.084L318.895 479.174L319.034 479.237L319.072 479.255C333.048 489.068 340.148 493.534 349.727 495.433C359.063 497.376 372.747 496.919 397.97 494.275L400.448 517.36C374.586 520.085 359.081 521.095 345.052 518.215C330.841 515.296 320.096 508.371 305.489 498.087L305.472 498.074L305.284 497.92L305.056 497.834L305.055 497.833C294.726 490.317 283.493 489.38 274.162 490.333C268.841 490.801 263.62 492.057 258.669 494.059L258.61 494.083L258.554 494.112L210.983 518.176L209.678 518.836L210.305 520.157L221.074 542.866L221.733 544.255L223.105 543.563L271.226 519.283L368.414 560.526L369.078 560.808L369.712 560.466L511.22 484.175L522.243 504.561L370.299 586.529L272.651 545.082L272.01 544.81L271.389 545.124L210.992 575.653L178.979 508.374L248.702 473.104L248.901 473.011C256.214 469.998 263.923 468.053 271.791 467.238Z" stroke="white" stroke-width="3"/>
<g filter="url(#filter3_i_28_123)">
<path d="M426.791 131.999C434.84 131.988 442.844 130.812 450.558 128.509L450.82 128.417L525 99.8624L499.048 26.77L434.561 51.5715L341.205 4.29653e-06L180 67.0036L190.02 91.2015L339.622 29.0664L432.52 80.3754L483.404 60.8491L491.788 84.5615L442.122 103.681C437.142 105.13 431.975 105.829 426.791 105.754C417.595 105.754 406.882 103.707 397.726 95.3876L397.543 95.2957L397.491 95.2432C384.018 83.4986 373.841 75.297 359.688 70.8354C345.535 66.3737 329.472 65.875 302.656 65.98L302.787 92.2251C329.105 92.1201 342.853 93.0518 351.839 95.9125C360.839 98.6813 367.222 103.655 380.198 114.94L380.355 115.032C395.489 128.666 413.462 132.052 426.791 131.999Z" fill="url(#paint5_linear_28_123)"/>
</g>
<path d="M426.789 130.499L426.785 130.499C413.694 130.551 396.13 127.225 381.359 113.918L381.245 113.815L381.113 113.737L381.077 113.716C368.2 102.521 361.604 97.3491 352.288 94.481C343.216 91.5948 329.586 90.6563 304.28 90.7202L304.164 67.4748C330.112 67.3954 345.605 67.9686 359.237 72.266C373.047 76.6194 383.009 84.6107 396.465 96.3394L396.481 96.3547L396.653 96.5272L396.87 96.6365L396.871 96.637C406.362 105.175 417.419 107.253 426.78 107.254C432.11 107.33 437.422 106.611 442.541 105.121L442.601 105.104L442.66 105.081L492.327 85.9614L493.689 85.4372L493.203 84.0615L484.818 60.349L484.304 58.8968L482.866 59.4487L432.635 78.7249L340.347 27.7533L339.715 27.4038L339.047 27.6811L190.831 89.2403L181.959 67.8138L341.113 1.66273L433.836 52.8845L434.447 53.2223L435.099 52.9715L498.15 28.7226L523.098 98.9874L450.302 127.009L450.095 127.082C442.53 129.337 434.681 130.488 426.789 130.499Z" stroke="white" stroke-width="3"/>
<g filter="url(#filter4_i_28_123)">
<path d="M213.205 358.627C205.648 340.382 201.758 320.826 201.758 301.078C201.758 261.193 217.602 222.942 245.804 194.74C274.007 166.537 312.258 150.693 352.143 150.693C392.027 150.693 430.278 166.537 458.481 194.74C486.683 222.942 502.527 261.193 502.527 301.078C502.527 320.826 498.638 340.382 491.08 358.627C483.522 376.873 472.445 393.451 458.481 407.416C444.516 421.38 427.938 432.457 409.692 440.015C391.447 447.573 371.891 451.462 352.143 451.462C332.394 451.462 312.838 447.573 294.593 440.015C276.347 432.457 259.769 421.38 245.804 407.416C231.84 393.451 220.763 376.873 213.205 358.627ZM447.301 396.236C472.539 370.999 486.717 336.769 486.717 301.078C486.717 265.386 472.539 231.157 447.301 205.919C422.064 180.681 387.834 166.503 352.143 166.503C316.451 166.503 282.221 180.681 256.984 205.919C231.746 231.157 217.568 265.386 217.568 301.078C217.568 336.769 231.746 370.999 256.984 396.236C282.221 421.474 316.451 435.652 352.143 435.652C387.834 435.652 422.064 421.474 447.301 396.236Z" fill="url(#paint6_linear_28_123)" stroke="white" stroke-width="2"/>
<path d="M352.143 442.557C334.464 442.557 319.122 427.048 308.15 401.285C297.215 375.609 290.808 340.13 290.808 301.078C290.808 262.025 297.215 226.547 308.15 200.87C319.122 175.107 334.464 159.598 352.143 159.598C369.821 159.598 385.163 175.107 396.135 200.87C407.07 226.547 413.477 262.025 413.477 301.078C413.477 340.13 407.07 375.609 396.135 401.285C385.163 427.048 369.821 442.557 352.143 442.557ZM352.143 426.747C358.162 426.747 363.993 423.023 369.298 416.647C374.618 410.253 379.533 401.049 383.725 389.733C392.11 367.093 397.667 335.805 397.667 301.078C397.667 266.351 392.11 235.062 383.725 212.422C379.533 201.106 374.618 191.902 369.298 185.508C363.993 179.132 358.162 175.408 352.143 175.408C346.123 175.408 340.292 179.132 334.987 185.508C329.667 191.902 324.752 201.106 320.56 212.422C312.175 235.062 306.618 266.351 306.618 301.078C306.618 335.805 312.175 367.093 320.56 389.733C324.752 401.049 329.667 410.253 334.987 416.647C340.292 423.023 346.123 426.747 352.143 426.747Z" fill="url(#paint7_linear_28_123)" stroke="white" stroke-width="2"/>
<path d="M457.883 231.072L457.883 231.073C431.757 246.019 396.761 254.503 359.498 254.503C315.661 254.503 275.07 242.732 248.519 222.824C246.268 221.133 244.086 219.368 241.98 217.509L252.573 205.777C254.28 207.277 256.091 208.743 258.005 210.176C281.7 227.938 318.976 238.693 359.498 238.693C394.06 238.693 426.367 230.883 450.022 217.369C455.195 214.441 460.098 211.061 464.674 207.269L474.954 219.289C469.878 223.542 464.189 227.471 457.883 231.072ZM450.026 384.987L450.024 384.986C426.369 371.454 394.06 363.661 359.498 363.661C318.977 363.661 281.703 374.415 258.008 392.176C256.092 393.59 254.279 395.05 252.57 396.557L241.979 384.859C244.033 383.033 246.213 381.242 248.518 379.513C275.069 359.622 315.661 347.851 359.498 347.851C396.761 347.851 431.757 356.335 457.883 371.264L457.886 371.266C463.914 374.679 469.625 378.624 474.951 383.051L464.675 395.066C460.356 391.476 455.472 388.117 450.026 384.987ZM210.663 308.984V293.174H493.623V308.984H210.663Z" fill="url(#paint8_linear_28_123)" stroke="white" stroke-width="2"/>
</g>
<g filter="url(#filter5_i_28_123)">
<mask id="path-14-inside-1_28_123" fill="white">
<path d="M161.616 458.822C132.725 439.987 108.531 413.557 91.6255 382.365C74.7203 351.174 65.7417 316.396 65.6521 281.759C65.5625 247.123 74.3653 213.933 91.1169 185.748C107.869 157.562 131.938 135.443 160.745 121.761L167.648 136.07C141.182 148.64 119.069 168.962 103.678 194.857C88.2879 220.752 80.2005 251.244 80.2828 283.066C80.3651 314.888 88.6141 346.839 104.146 375.496C119.677 404.153 141.906 428.435 168.449 445.74L161.616 458.822Z"/>
</mask>
<path d="M161.616 458.822C132.725 439.987 108.531 413.557 91.6255 382.365C74.7203 351.174 65.7417 316.396 65.6521 281.759C65.5625 247.123 74.3653 213.933 91.1169 185.748C107.869 157.562 131.938 135.443 160.745 121.761L167.648 136.07C141.182 148.64 119.069 168.962 103.678 194.857C88.2879 220.752 80.2005 251.244 80.2828 283.066C80.3651 314.888 88.6141 346.839 104.146 375.496C119.677 404.153 141.906 428.435 168.449 445.74L161.616 458.822Z" fill="url(#paint9_linear_28_123)" stroke="white" stroke-width="4" mask="url(#path-14-inside-1_28_123)"/>
<circle cx="165.259" cy="126.434" r="11.6494" fill="url(#paint10_linear_28_123)" stroke="white" stroke-width="2"/>
<circle cx="165.259" cy="452.87" r="11.6494" fill="url(#paint11_linear_28_123)" stroke="white" stroke-width="2"/>
</g>
<g filter="url(#filter6_i_28_123)">
<mask id="path-17-inside-2_28_123" fill="white">
<path d="M539.501 458.822C568.392 439.987 592.586 413.557 609.492 382.365C626.397 351.174 635.375 316.396 635.465 281.759C635.555 247.123 626.752 213.933 610 185.748C593.249 157.562 569.18 135.443 540.373 121.761L533.47 136.07C559.935 148.64 582.049 168.962 597.439 194.857C612.829 220.752 620.917 251.244 620.834 283.066C620.752 314.888 612.503 346.839 596.972 375.496C581.44 404.153 559.212 428.435 532.668 445.74L539.501 458.822Z"/>
</mask>
<path d="M539.501 458.822C568.392 439.987 592.586 413.557 609.492 382.365C626.397 351.174 635.375 316.396 635.465 281.759C635.555 247.123 626.752 213.933 610 185.748C593.249 157.562 569.18 135.443 540.373 121.761L533.47 136.07C559.935 148.64 582.049 168.962 597.439 194.857C612.829 220.752 620.917 251.244 620.834 283.066C620.752 314.888 612.503 346.839 596.972 375.496C581.44 404.153 559.212 428.435 532.668 445.74L539.501 458.822Z" fill="url(#paint12_linear_28_123)" stroke="white" stroke-width="4" mask="url(#path-17-inside-2_28_123)"/>
<circle cx="12.6494" cy="12.6494" r="11.6494" transform="matrix(-1 0 0 1 548.508 113.785)" fill="url(#paint13_linear_28_123)" stroke="white" stroke-width="2"/>
<circle cx="12.6494" cy="12.6494" r="11.6494" transform="matrix(-1 0 0 1 548.508 440.221)" fill="url(#paint14_linear_28_123)" stroke="white" stroke-width="2"/>
</g>
</g>
<g filter="url(#filter7_d_28_123)">
<path d="M215.12 873.64C211.36 873.64 208.187 872.947 205.6 871.56L207.6 865.36C210.347 866.347 212.8 866.84 214.96 866.84C216.133 866.84 216.987 866.707 217.52 866.44C218.08 866.147 218.36 865.72 218.36 865.16C218.36 864.787 218.213 864.467 217.92 864.2C217.627 863.907 217.04 863.587 216.16 863.24C215.28 862.893 213.96 862.467 212.2 861.96C210.04 861.32 208.36 860.28 207.16 858.84C205.96 857.373 205.36 855.693 205.36 853.8C205.36 850.867 206.32 848.653 208.24 847.16C210.187 845.64 212.8 844.88 216.08 844.88C217.787 844.88 219.467 845.067 221.12 845.44C222.773 845.787 224.24 846.307 225.52 847L223.36 853.04C221.867 852.533 220.56 852.173 219.44 851.96C218.347 851.72 217.28 851.6 216.24 851.6C214.48 851.6 213.6 852.08 213.6 853.04C213.6 853.52 213.88 853.933 214.44 854.28C215.027 854.6 216.213 855.013 218 855.52C220.8 856.267 222.92 857.413 224.36 858.96C225.8 860.48 226.52 862.307 226.52 864.44C226.52 867.4 225.56 869.68 223.64 871.28C221.72 872.853 218.88 873.64 215.12 873.64ZM245.072 845.48H264.392V851.56H254.792V856.56H263.552V861.6H254.792V866.92H264.392V873H245.072V845.48ZM304.501 873.64C299.488 873.64 296.421 871.32 295.301 866.68L294.301 862.56H292.421V873H283.661V845.48H295.781C298.074 845.48 300.088 845.827 301.821 846.52C303.581 847.187 304.941 848.133 305.901 849.36C306.861 850.587 307.341 852 307.341 853.6C307.341 855.387 306.901 856.893 306.021 858.12C305.168 859.32 303.834 860.307 302.021 861.08C302.208 862.093 302.421 863.013 302.661 863.84C302.981 864.853 303.421 865.56 303.981 865.96C304.541 866.36 305.354 866.56 306.421 866.56C306.794 866.56 307.381 866.507 308.181 866.4V872.92C306.928 873.4 305.701 873.64 304.501 873.64ZM293.941 856.96C295.914 856.96 297.301 856.747 298.101 856.32C298.928 855.867 299.341 855.107 299.341 854.04C299.341 853.133 299.008 852.48 298.341 852.08C297.674 851.653 296.621 851.44 295.181 851.44H292.421V856.96H293.941ZM323.519 845.48H332.559L336.799 862.64L341.039 845.48H350.479L341.879 873H331.679L323.519 845.48ZM367.714 845.48H376.954V873H367.714V845.48ZM409.927 873.64C407.261 873.64 404.834 873.013 402.647 871.76C400.487 870.48 398.767 868.747 397.487 866.56C396.234 864.347 395.607 861.907 395.607 859.24C395.607 856.52 396.221 854.067 397.447 851.88C398.674 849.693 400.354 847.987 402.487 846.76C404.621 845.507 407.021 844.88 409.687 844.88C411.127 844.88 412.541 845.053 413.927 845.4C415.314 845.747 416.501 846.24 417.487 846.88L416.407 853.08C414.487 852.36 412.754 852 411.207 852C409.074 852 407.434 852.627 406.287 853.88C405.141 855.107 404.567 856.88 404.567 859.2C404.567 861.467 405.167 863.24 406.367 864.52C407.594 865.773 409.287 866.4 411.447 866.4C412.274 866.4 413.047 866.32 413.767 866.16C414.487 866 415.367 865.707 416.407 865.28L417.527 871.6C415.207 872.96 412.674 873.64 409.927 873.64ZM435.908 845.48H455.228V851.56H445.628V856.56H454.388V861.6H445.628V866.92H455.228V873H435.908V845.48ZM483.017 873.64C479.257 873.64 476.084 872.947 473.497 871.56L475.497 865.36C478.244 866.347 480.697 866.84 482.857 866.84C484.03 866.84 484.884 866.707 485.417 866.44C485.977 866.147 486.257 865.72 486.257 865.16C486.257 864.787 486.11 864.467 485.817 864.2C485.524 863.907 484.937 863.587 484.057 863.24C483.177 862.893 481.857 862.467 480.097 861.96C477.937 861.32 476.257 860.28 475.057 858.84C473.857 857.373 473.257 855.693 473.257 853.8C473.257 850.867 474.217 848.653 476.137 847.16C478.084 845.64 480.697 844.88 483.977 844.88C485.684 844.88 487.364 845.067 489.017 845.44C490.67 845.787 492.137 846.307 493.417 847L491.257 853.04C489.764 852.533 488.457 852.173 487.337 851.96C486.244 851.72 485.177 851.6 484.137 851.6C482.377 851.6 481.497 852.08 481.497 853.04C481.497 853.52 481.777 853.933 482.337 854.28C482.924 854.6 484.11 855.013 485.897 855.52C488.697 856.267 490.817 857.413 492.257 858.96C493.697 860.48 494.417 862.307 494.417 864.44C494.417 867.4 493.457 869.68 491.537 871.28C489.617 872.853 486.777 873.64 483.017 873.64Z" fill="#0055ED"/>
</g>
<path d="M87.784 745.488C94.824 750.352 99.304 759.312 99.304 773.136V794H83.304V773.136C83.304 759.568 78.312 755.088 69.608 755.088H60.648V794H44.52V755.088H36.2V740.752H44.52V704.4H60.648V740.752H66.28C72.936 740.752 78.056 736.272 78.056 722.704V704.4H94.056V723.344C94.056 732.944 91.752 740.24 87.784 745.488ZM110.885 764.56V704.4H126.885V764.56C126.885 776.72 132.389 780.944 139.045 780.944C145.573 780.944 151.077 776.72 151.077 764.56V704.4H167.077V764.56C167.077 785.424 153.893 795.92 139.045 795.92C123.813 795.92 110.885 785.424 110.885 764.56ZM239.947 747.536C246.347 752.4 249.547 759.696 249.547 767.504C249.547 781.584 240.715 794 218.827 794H185.675V755.728H177.355V741.264H185.675V704.4H217.163C238.539 704.4 247.243 716.816 247.243 729.616C247.243 736.272 244.683 742.672 239.947 747.536ZM217.163 719.12H201.035V741.264H217.547C227.147 741.264 231.115 736.4 231.115 730.128C231.115 723.856 227.147 719.12 217.163 719.12ZM201.035 779.024H218.827C229.195 779.024 233.419 774.16 233.419 767.504C233.419 760.848 229.195 755.728 219.339 755.728H201.035V779.024ZM351.551 769.936H308.415V758.8H351.551V769.936ZM409.825 704.4H469.729V719.248H447.841V794H431.841V719.248H409.825V704.4ZM500.395 755.984V779.152H537.515V794H484.395V755.984H476.075V741.52H484.395V704.4H521.899V719.12H500.395V741.52H527.403V755.984H500.395ZM590.477 795.92C563.213 795.92 542.605 775.568 542.605 749.2C542.605 722.704 563.085 702.48 590.477 702.48C604.301 702.48 616.589 707.984 624.269 717.584L613.133 728.208C607.629 721.552 599.309 717.328 590.477 717.328C572.429 717.328 558.605 731.024 558.605 749.2C558.605 767.376 572.429 780.944 590.477 780.944C599.309 780.944 607.629 776.848 613.133 770.192L624.269 780.816C616.461 790.288 604.173 795.92 590.477 795.92ZM677.194 742.544V704.4H693.194V794H677.194V757.648H653.77V794H637.77V757.648H629.45V742.544H637.77V704.4H653.77V742.544H677.194Z" fill="black"/>
<rect x="421" y="629" width="274" height="16" fill="url(#paint15_linear_28_123)"/>
<rect x="41" y="629" width="274" height="16" fill="url(#paint16_linear_28_123)"/>
<rect x="421" y="655" width="274" height="16" fill="url(#paint17_linear_28_123)"/>
<rect x="41" y="655" width="274" height="16" fill="url(#paint18_linear_28_123)"/>
<g filter="url(#filter8_d_28_123)">
<g filter="url(#filter9_i_28_123)">
<path d="M271.636 465.746C263.613 466.577 255.753 468.562 248.296 471.638L248.045 471.756L176.995 507.696L210.297 577.685L272.065 546.462L370.377 588.191L524.276 505.168L511.827 482.143L369 559.145L271.172 517.631L222.429 542.224L211.66 519.515L259.231 495.45C264.048 493.502 269.128 492.281 274.304 491.826C283.471 490.889 294.359 491.83 304.333 499.164L304.525 499.237L304.583 499.284C319.208 509.581 330.187 516.694 344.751 519.684C359.314 522.674 375.378 521.532 402.1 518.693L399.302 492.626C373.075 495.414 359.275 495.89 350.026 493.963C340.772 492.13 333.903 487.838 319.82 477.947L319.654 477.871C303.18 465.866 284.919 464.334 271.636 465.746Z" fill="url(#paint19_linear_28_123)"/>
</g>
<path d="M271.791 467.238L271.794 467.237C284.842 465.851 302.692 467.366 318.771 479.084L318.895 479.174L319.034 479.237L319.072 479.255C333.048 489.068 340.148 493.534 349.727 495.433C359.063 497.376 372.747 496.919 397.97 494.275L400.448 517.36C374.586 520.085 359.081 521.095 345.052 518.215C330.841 515.296 320.096 508.371 305.489 498.087L305.472 498.074L305.284 497.92L305.056 497.834L305.055 497.833C294.726 490.317 283.493 489.38 274.162 490.333C268.841 490.801 263.62 492.057 258.669 494.059L258.61 494.083L258.554 494.112L210.983 518.176L209.678 518.836L210.305 520.157L221.074 542.866L221.733 544.255L223.105 543.563L271.226 519.283L368.414 560.526L369.078 560.808L369.712 560.466L511.22 484.175L522.243 504.561L370.299 586.529L272.651 545.082L272.01 544.81L271.389 545.124L210.992 575.653L178.979 508.374L248.702 473.104L248.901 473.011C256.214 469.998 263.923 468.053 271.791 467.238Z" stroke="white" stroke-width="3"/>
<g filter="url(#filter10_i_28_123)">
<path d="M426.791 131.999C434.84 131.988 442.844 130.812 450.558 128.509L450.82 128.417L525 99.8624L499.048 26.77L434.561 51.5715L341.205 4.29653e-06L180 67.0036L190.02 91.2015L339.622 29.0664L432.52 80.3754L483.404 60.8491L491.788 84.5615L442.122 103.681C437.142 105.13 431.975 105.829 426.791 105.754C417.595 105.754 406.882 103.707 397.726 95.3876L397.543 95.2957L397.491 95.2432C384.018 83.4986 373.841 75.297 359.688 70.8354C345.535 66.3737 329.472 65.875 302.656 65.98L302.787 92.2251C329.105 92.1201 342.853 93.0518 351.839 95.9125C360.839 98.6813 367.222 103.655 380.198 114.94L380.355 115.032C395.489 128.666 413.462 132.052 426.791 131.999Z" fill="url(#paint20_linear_28_123)"/>
</g>
<path d="M426.789 130.499L426.785 130.499C413.694 130.551 396.13 127.225 381.359 113.918L381.245 113.815L381.113 113.737L381.077 113.716C368.2 102.521 361.604 97.3491 352.288 94.481C343.216 91.5948 329.586 90.6563 304.28 90.7202L304.164 67.4748C330.112 67.3954 345.605 67.9686 359.237 72.266C373.047 76.6194 383.009 84.6107 396.465 96.3394L396.481 96.3547L396.653 96.5272L396.87 96.6365L396.871 96.637C406.362 105.175 417.419 107.253 426.78 107.254C432.11 107.33 437.422 106.611 442.541 105.121L442.601 105.104L442.66 105.081L492.327 85.9614L493.689 85.4372L493.203 84.0615L484.818 60.349L484.304 58.8968L482.866 59.4487L432.635 78.7249L340.347 27.7533L339.715 27.4038L339.047 27.6811L190.831 89.2403L181.959 67.8138L341.113 1.66273L433.836 52.8845L434.447 53.2223L435.099 52.9715L498.15 28.7226L523.098 98.9874L450.302 127.009L450.095 127.082C442.53 129.337 434.681 130.488 426.789 130.499Z" stroke="white" stroke-width="3"/>
<g filter="url(#filter11_i_28_123)">
<path d="M213.205 358.627C205.648 340.382 201.758 320.826 201.758 301.078C201.758 261.193 217.602 222.942 245.804 194.74C274.007 166.537 312.258 150.693 352.143 150.693C392.027 150.693 430.278 166.537 458.481 194.74C486.683 222.942 502.527 261.193 502.527 301.078C502.527 320.826 498.638 340.382 491.08 358.627C483.522 376.873 472.445 393.451 458.481 407.416C444.516 421.38 427.938 432.457 409.692 440.015C391.447 447.573 371.891 451.462 352.143 451.462C332.394 451.462 312.838 447.573 294.593 440.015C276.347 432.457 259.769 421.38 245.804 407.416C231.84 393.451 220.763 376.873 213.205 358.627ZM447.301 396.236C472.539 370.999 486.717 336.769 486.717 301.078C486.717 265.386 472.539 231.157 447.301 205.919C422.064 180.681 387.834 166.503 352.143 166.503C316.451 166.503 282.221 180.681 256.984 205.919C231.746 231.157 217.568 265.386 217.568 301.078C217.568 336.769 231.746 370.999 256.984 396.236C282.221 421.474 316.451 435.652 352.143 435.652C387.834 435.652 422.064 421.474 447.301 396.236Z" fill="url(#paint21_linear_28_123)" stroke="white" stroke-width="2"/>
<path d="M352.143 442.557C334.464 442.557 319.122 427.048 308.15 401.285C297.215 375.609 290.808 340.13 290.808 301.078C290.808 262.025 297.215 226.547 308.15 200.87C319.122 175.107 334.464 159.598 352.143 159.598C369.821 159.598 385.163 175.107 396.135 200.87C407.07 226.547 413.477 262.025 413.477 301.078C413.477 340.13 407.07 375.609 396.135 401.285C385.163 427.048 369.821 442.557 352.143 442.557ZM352.143 426.747C358.162 426.747 363.993 423.023 369.298 416.647C374.618 410.253 379.533 401.049 383.725 389.733C392.11 367.093 397.667 335.805 397.667 301.078C397.667 266.351 392.11 235.062 383.725 212.422C379.533 201.106 374.618 191.902 369.298 185.508C363.993 179.132 358.162 175.408 352.143 175.408C346.123 175.408 340.292 179.132 334.987 185.508C329.667 191.902 324.752 201.106 320.56 212.422C312.175 235.062 306.618 266.351 306.618 301.078C306.618 335.805 312.175 367.093 320.56 389.733C324.752 401.049 329.667 410.253 334.987 416.647C340.292 423.023 346.123 426.747 352.143 426.747Z" fill="url(#paint22_linear_28_123)" stroke="white" stroke-width="2"/>
<path d="M457.883 231.072L457.883 231.073C431.757 246.019 396.761 254.503 359.498 254.503C315.661 254.503 275.07 242.732 248.519 222.824C246.268 221.133 244.086 219.368 241.98 217.509L252.573 205.777C254.28 207.277 256.091 208.743 258.005 210.176C281.7 227.938 318.976 238.693 359.498 238.693C394.06 238.693 426.367 230.883 450.022 217.369C455.195 214.441 460.098 211.061 464.674 207.269L474.954 219.289C469.878 223.542 464.189 227.471 457.883 231.072ZM450.026 384.987L450.024 384.986C426.369 371.454 394.06 363.661 359.498 363.661C318.977 363.661 281.703 374.415 258.008 392.176C256.092 393.59 254.279 395.05 252.57 396.557L241.979 384.859C244.033 383.033 246.213 381.242 248.518 379.513C275.069 359.622 315.661 347.851 359.498 347.851C396.761 347.851 431.757 356.335 457.883 371.264L457.886 371.266C463.914 374.679 469.625 378.624 474.951 383.051L464.675 395.066C460.356 391.476 455.472 388.117 450.026 384.987ZM210.663 308.984V293.174H493.623V308.984H210.663Z" fill="url(#paint23_linear_28_123)" stroke="white" stroke-width="2"/>
</g>
<g filter="url(#filter12_i_28_123)">
<mask id="path-33-inside-3_28_123" fill="white">
<path d="M161.616 458.822C132.725 439.987 108.531 413.557 91.6255 382.365C74.7203 351.174 65.7417 316.396 65.6521 281.759C65.5625 247.123 74.3653 213.933 91.1169 185.748C107.869 157.562 131.938 135.443 160.745 121.761L167.648 136.07C141.182 148.64 119.069 168.962 103.678 194.857C88.2879 220.752 80.2005 251.244 80.2828 283.066C80.3651 314.888 88.6141 346.839 104.146 375.496C119.677 404.153 141.906 428.435 168.449 445.74L161.616 458.822Z"/>
</mask>
<path d="M161.616 458.822C132.725 439.987 108.531 413.557 91.6255 382.365C74.7203 351.174 65.7417 316.396 65.6521 281.759C65.5625 247.123 74.3653 213.933 91.1169 185.748C107.869 157.562 131.938 135.443 160.745 121.761L167.648 136.07C141.182 148.64 119.069 168.962 103.678 194.857C88.2879 220.752 80.2005 251.244 80.2828 283.066C80.3651 314.888 88.6141 346.839 104.146 375.496C119.677 404.153 141.906 428.435 168.449 445.74L161.616 458.822Z" fill="url(#paint24_linear_28_123)" stroke="white" stroke-width="4" mask="url(#path-33-inside-3_28_123)"/>
<circle cx="165.259" cy="126.434" r="11.6494" fill="url(#paint25_linear_28_123)" stroke="white" stroke-width="2"/>
<circle cx="165.259" cy="452.87" r="11.6494" fill="url(#paint26_linear_28_123)" stroke="white" stroke-width="2"/>
</g>
<g filter="url(#filter13_i_28_123)">
<mask id="path-36-inside-4_28_123" fill="white">
<path d="M539.501 458.822C568.392 439.987 592.586 413.557 609.492 382.365C626.397 351.174 635.375 316.396 635.465 281.759C635.555 247.123 626.752 213.933 610 185.748C593.249 157.562 569.18 135.443 540.373 121.761L533.47 136.07C559.935 148.64 582.049 168.962 597.439 194.857C612.829 220.752 620.917 251.244 620.834 283.066C620.752 314.888 612.503 346.839 596.972 375.496C581.44 404.153 559.212 428.435 532.668 445.74L539.501 458.822Z"/>
</mask>
<path d="M539.501 458.822C568.392 439.987 592.586 413.557 609.492 382.365C626.397 351.174 635.375 316.396 635.465 281.759C635.555 247.123 626.752 213.933 610 185.748C593.249 157.562 569.18 135.443 540.373 121.761L533.47 136.07C559.935 148.64 582.049 168.962 597.439 194.857C612.829 220.752 620.917 251.244 620.834 283.066C620.752 314.888 612.503 346.839 596.972 375.496C581.44 404.153 559.212 428.435 532.668 445.74L539.501 458.822Z" fill="url(#paint27_linear_28_123)" stroke="white" stroke-width="4" mask="url(#path-36-inside-4_28_123)"/>
<circle cx="12.6494" cy="12.6494" r="11.6494" transform="matrix(-1 0 0 1 548.508 113.785)" fill="url(#paint28_linear_28_123)" stroke="white" stroke-width="2"/>
<circle cx="12.6494" cy="12.6494" r="11.6494" transform="matrix(-1 0 0 1 548.508 440.221)" fill="url(#paint29_linear_28_123)" stroke="white" stroke-width="2"/>
</g>
</g>
<defs>
<filter id="filter0_d_28_123" x="205.36" y="844.88" width="297.057" height="38.7603" filterUnits="userSpaceOnUse" color-interpolation-filters="sRGB">
<feFlood flood-opacity="0" result="BackgroundImageFix"/>
<feColorMatrix in="SourceAlpha" type="matrix" values="0 0 0 0 0 0 0 0 0 0 0 0 0 0 0 0 0 0 127 0" result="hardAlpha"/>
<feOffset dx="4" dy="6"/>
<feGaussianBlur stdDeviation="2"/>
<feComposite in2="hardAlpha" operator="out"/>
<feColorMatrix type="matrix" values="0 0 0 0 0 0 0 0 0 0 0 0 0 0 0 0 0 0 0.25 0"/>
<feBlend mode="normal" in2="BackgroundImageFix" result="effect1_dropShadow_28_123"/>
<feBlend mode="normal" in="SourceGraphic" in2="effect1_dropShadow_28_123" result="shape"/>
</filter>
<filter id="filter1_d_28_123" x="61.6514" y="0" width="577.814" height="596.191" filterUnits="userSpaceOnUse" color-interpolation-filters="sRGB">
<feFlood flood-opacity="0" result="BackgroundImageFix"/>
<feColorMatrix in="SourceAlpha" type="matrix" values="0 0 0 0 0 0 0 0 0 0 0 0 0 0 0 0 0 0 127 0" result="hardAlpha"/>
<feOffset dy="4"/>
<feGaussianBlur stdDeviation="2"/>
<feComposite in2="hardAlpha" operator="out"/>
<feColorMatrix type="matrix" values="0 0 0 0 0 0 0 0 0 0 0 0 0 0 0 0 0 0 0.25 0"/>
<feBlend mode="normal" in2="BackgroundImageFix" result="effect1_dropShadow_28_123"/>
<feBlend mode="normal" in="SourceGraphic" in2="effect1_dropShadow_28_123" result="shape"/>
</filter>
<filter id="filter2_i_28_123" x="176.995" y="465.311" width="351.281" height="126.88" filterUnits="userSpaceOnUse" color-interpolation-filters="sRGB">
<feFlood flood-opacity="0" result="BackgroundImageFix"/>
<feBlend mode="normal" in="SourceGraphic" in2="BackgroundImageFix" result="shape"/>
<feColorMatrix in="SourceAlpha" type="matrix" values="0 0 0 0 0 0 0 0 0 0 0 0 0 0 0 0 0 0 127 0" result="hardAlpha"/>
<feOffset dx="10" dy="6"/>
<feGaussianBlur stdDeviation="2"/>
<feComposite in2="hardAlpha" operator="arithmetic" k2="-1" k3="1"/>
<feColorMatrix type="matrix" values="0 0 0 0 0 0 0 0 0 0 0 0 0 0 0 0 0 0 0.25 0"/>
<feBlend mode="normal" in2="shape" result="effect1_innerShadow_28_123"/>
</filter>
<filter id="filter3_i_28_123" x="180" y="0" width="349" height="136" filterUnits="userSpaceOnUse" color-interpolation-filters="sRGB">
<feFlood flood-opacity="0" result="BackgroundImageFix"/>
<feBlend mode="normal" in="SourceGraphic" in2="BackgroundImageFix" result="shape"/>
<feColorMatrix in="SourceAlpha" type="matrix" values="0 0 0 0 0 0 0 0 0 0 0 0 0 0 0 0 0 0 127 0" result="hardAlpha"/>
<feOffset dx="10" dy="6"/>
<feGaussianBlur stdDeviation="2"/>
<feComposite in2="hardAlpha" operator="arithmetic" k2="-1" k3="1"/>
<feColorMatrix type="matrix" values="0 0 0 0 0 0 0 0 0 0 0 0 0 0 0 0 0 0 0.25 0"/>
<feBlend mode="normal" in2="shape" result="effect1_innerShadow_28_123"/>
</filter>
<filter id="filter4_i_28_123" x="200.758" y="149.693" width="306.77" height="306.77" filterUnits="userSpaceOnUse" color-interpolation-filters="sRGB">
<feFlood flood-opacity="0" result="BackgroundImageFix"/>
<feBlend mode="normal" in="SourceGraphic" in2="BackgroundImageFix" result="shape"/>
<feColorMatrix in="SourceAlpha" type="matrix" values="0 0 0 0 0 0 0 0 0 0 0 0 0 0 0 0 0 0 127 0" result="hardAlpha"/>
<feOffset dx="10" dy="6"/>
<feGaussianBlur stdDeviation="2"/>
<feComposite in2="hardAlpha" operator="arithmetic" k2="-1" k3="1"/>
<feColorMatrix type="matrix" values="0 0 0 0 0 0 0 0 0 0 0 0 0 0 0 0 0 0 0.25 0"/>
<feBlend mode="normal" in2="shape" result="effect1_innerShadow_28_123"/>
</filter>
<filter id="filter5_i_28_123" x="65.6514" y="113.785" width="116.257" height="355.735" filterUnits="userSpaceOnUse" color-interpolation-filters="sRGB">
<feFlood flood-opacity="0" result="BackgroundImageFix"/>
<feBlend mode="normal" in="SourceGraphic" in2="BackgroundImageFix" result="shape"/>
<feColorMatrix in="SourceAlpha" type="matrix" values="0 0 0 0 0 0 0 0 0 0 0 0 0 0 0 0 0 0 127 0" result="hardAlpha"/>
<feOffset dx="10" dy="6"/>
<feGaussianBlur stdDeviation="2"/>
<feComposite in2="hardAlpha" operator="arithmetic" k2="-1" k3="1"/>
<feColorMatrix type="matrix" values="0 0 0 0 0 0 0 0 0 0 0 0 0 0 0 0 0 0 0.25 0"/>
<feBlend mode="normal" in2="shape" result="effect1_innerShadow_28_123"/>
</filter>
<filter id="filter6_i_28_123" x="523.209" y="113.785" width="116.257" height="355.735" filterUnits="userSpaceOnUse" color-interpolation-filters="sRGB">
<feFlood flood-opacity="0" result="BackgroundImageFix"/>
<feBlend mode="normal" in="SourceGraphic" in2="BackgroundImageFix" result="shape"/>
<feColorMatrix in="SourceAlpha" type="matrix" values="0 0 0 0 0 0 0 0 0 0 0 0 0 0 0 0 0 0 127 0" result="hardAlpha"/>
<feOffset dx="10" dy="6"/>
<feGaussianBlur stdDeviation="2"/>
<feComposite in2="hardAlpha" operator="arithmetic" k2="-1" k3="1"/>
<feColorMatrix type="matrix" values="0 0 0 0 0 0 0 0 0 0 0 0 0 0 0 0 0 0 0.25 0"/>
<feBlend mode="normal" in2="shape" result="effect1_innerShadow_28_123"/>
</filter>
<filter id="filter7_d_28_123" x="205.36" y="844.88" width="297.057" height="38.7603" filterUnits="userSpaceOnUse" color-interpolation-filters="sRGB">
<feFlood flood-opacity="0" result="BackgroundImageFix"/>
<feColorMatrix in="SourceAlpha" type="matrix" values="0 0 0 0 0 0 0 0 0 0 0 0 0 0 0 0 0 0 127 0" result="hardAlpha"/>
<feOffset dx="4" dy="6"/>
<feGaussianBlur stdDeviation="2"/>
<feComposite in2="hardAlpha" operator="out"/>
<feColorMatrix type="matrix" values="0 0 0 0 0 0 0 0 0 0 0 0 0 0 0 0 0 0 0.25 0"/>
<feBlend mode="normal" in2="BackgroundImageFix" result="effect1_dropShadow_28_123"/>
<feBlend mode="normal" in="SourceGraphic" in2="effect1_dropShadow_28_123" result="shape"/>
</filter>
<filter id="filter8_d_28_123" x="61.6514" y="0" width="577.814" height="596.191" filterUnits="userSpaceOnUse" color-interpolation-filters="sRGB">
<feFlood flood-opacity="0" result="BackgroundImageFix"/>
<feColorMatrix in="SourceAlpha" type="matrix" values="0 0 0 0 0 0 0 0 0 0 0 0 0 0 0 0 0 0 127 0" result="hardAlpha"/>
<feOffset dy="4"/>
<feGaussianBlur stdDeviation="2"/>
<feComposite in2="hardAlpha" operator="out"/>
<feColorMatrix type="matrix" values="0 0 0 0 0 0 0 0 0 0 0 0 0 0 0 0 0 0 0.25 0"/>
<feBlend mode="normal" in2="BackgroundImageFix" result="effect1_dropShadow_28_123"/>
<feBlend mode="normal" in="SourceGraphic" in2="effect1_dropShadow_28_123" result="shape"/>
</filter>
<filter id="filter9_i_28_123" x="176.995" y="465.311" width="351.281" height="126.88" filterUnits="userSpaceOnUse" color-interpolation-filters="sRGB">
<feFlood flood-opacity="0" result="BackgroundImageFix"/>
<feBlend mode="normal" in="SourceGraphic" in2="BackgroundImageFix" result="shape"/>
<feColorMatrix in="SourceAlpha" type="matrix" values="0 0 0 0 0 0 0 0 0 0 0 0 0 0 0 0 0 0 127 0" result="hardAlpha"/>
<feOffset dx="10" dy="6"/>
<feGaussianBlur stdDeviation="2"/>
<feComposite in2="hardAlpha" operator="arithmetic" k2="-1" k3="1"/>
<feColorMatrix type="matrix" values="0 0 0 0 0 0 0 0 0 0 0 0 0 0 0 0 0 0 0.25 0"/>
<feBlend mode="normal" in2="shape" result="effect1_innerShadow_28_123"/>
</filter>
<filter id="filter10_i_28_123" x="180" y="0" width="349" height="136" filterUnits="userSpaceOnUse" color-interpolation-filters="sRGB">
<feFlood flood-opacity="0" result="BackgroundImageFix"/>
<feBlend mode="normal" in="SourceGraphic" in2="BackgroundImageFix" result="shape"/>
<feColorMatrix in="SourceAlpha" type="matrix" values="0 0 0 0 0 0 0 0 0 0 0 0 0 0 0 0 0 0 127 0" result="hardAlpha"/>
<feOffset dx="10" dy="6"/>
<feGaussianBlur stdDeviation="2"/>
<feComposite in2="hardAlpha" operator="arithmetic" k2="-1" k3="1"/>
<feColorMatrix type="matrix" values="0 0 0 0 0 0 0 0 0 0 0 0 0 0 0 0 0 0 0.25 0"/>
<feBlend mode="normal" in2="shape" result="effect1_innerShadow_28_123"/>
</filter>
<filter id="filter11_i_28_123" x="200.758" y="149.693" width="306.77" height="306.77" filterUnits="userSpaceOnUse" color-interpolation-filters="sRGB">
<feFlood flood-opacity="0" result="BackgroundImageFix"/>
<feBlend mode="normal" in="SourceGraphic" in2="BackgroundImageFix" result="shape"/>
<feColorMatrix in="SourceAlpha" type="matrix" values="0 0 0 0 0 0 0 0 0 0 0 0 0 0 0 0 0 0 127 0" result="hardAlpha"/>
<feOffset dx="10" dy="6"/>
<feGaussianBlur stdDeviation="2"/>
<feComposite in2="hardAlpha" operator="arithmetic" k2="-1" k3="1"/>
<feColorMatrix type="matrix" values="0 0 0 0 0 0 0 0 0 0 0 0 0 0 0 0 0 0 0.25 0"/>
<feBlend mode="normal" in2="shape" result="effect1_innerShadow_28_123"/>
</filter>
<filter id="filter12_i_28_123" x="65.6514" y="113.785" width="116.257" height="355.735" filterUnits="userSpaceOnUse" color-interpolation-filters="sRGB">
<feFlood flood-opacity="0" result="BackgroundImageFix"/>
<feBlend mode="normal" in="SourceGraphic" in2="BackgroundImageFix" result="shape"/>
<feColorMatrix in="SourceAlpha" type="matrix" values="0 0 0 0 0 0 0 0 0 0 0 0 0 0 0 0 0 0 127 0" result="hardAlpha"/>
<feOffset dx="10" dy="6"/>
<feGaussianBlur stdDeviation="2"/>
<feComposite in2="hardAlpha" operator="arithmetic" k2="-1" k3="1"/>
<feColorMatrix type="matrix" values="0 0 0 0 0 0 0 0 0 0 0 0 0 0 0 0 0 0 0.25 0"/>
<feBlend mode="normal" in2="shape" result="effect1_innerShadow_28_123"/>
</filter>
<filter id="filter13_i_28_123" x="523.209" y="113.785" width="116.257" height="355.735" filterUnits="userSpaceOnUse" color-interpolation-filters="sRGB">
<feFlood flood-opacity="0" result="BackgroundImageFix"/>
<feBlend mode="normal" in="SourceGraphic" in2="BackgroundImageFix" result="shape"/>
<feColorMatrix in="SourceAlpha" type="matrix" values="0 0 0 0 0 0 0 0 0 0 0 0 0 0 0 0 0 0 127 0" result="hardAlpha"/>
<feOffset dx="10" dy="6"/>
<feGaussianBlur stdDeviation="2"/>
<feComposite in2="hardAlpha" operator="arithmetic" k2="-1" k3="1"/>
<feColorMatrix type="matrix" values="0 0 0 0 0 0 0 0 0 0 0 0 0 0 0 0 0 0 0.25 0"/>
<feBlend mode="normal" in2="shape" result="effect1_innerShadow_28_123"/>
</filter>
<linearGradient id="paint0_linear_28_123" x1="421" y1="637" x2="695" y2="637" gradientUnits="userSpaceOnUse">
<stop stop-color="#0055ED"/>
<stop offset="0.51" stop-color="#50E3C2"/>
<stop offset="1" stop-color="#2292DB"/>
</linearGradient>
<linearGradient id="paint1_linear_28_123" x1="41" y1="637" x2="315" y2="637" gradientUnits="userSpaceOnUse">
<stop stop-color="#0055ED"/>
<stop offset="0.51" stop-color="#50E3C2"/>
<stop offset="1" stop-color="#2292DB"/>
</linearGradient>
<linearGradient id="paint2_linear_28_123" x1="421" y1="663" x2="695" y2="663" gradientUnits="userSpaceOnUse">
<stop stop-color="#0055ED"/>
<stop offset="0.51" stop-color="#50E3C2"/>
<stop offset="1" stop-color="#2292DB"/>
</linearGradient>
<linearGradient id="paint3_linear_28_123" x1="41" y1="663" x2="315" y2="663" gradientUnits="userSpaceOnUse">
<stop stop-color="#0055ED"/>
<stop offset="0.51" stop-color="#50E3C2"/>
<stop offset="1" stop-color="#2292DB"/>
</linearGradient>
<linearGradient id="paint4_linear_28_123" x1="252.453" y1="479.718" x2="323.648" y2="632.744" gradientUnits="userSpaceOnUse">
<stop stop-color="#0055ED"/>
<stop offset="0.16" stop-color="#2292DB"/>
<stop offset="0.41" stop-color="#50E3C2"/>
<stop offset="0.645" stop-color="#3BBFCD"/>
<stop offset="0.935" stop-color="#2292DB"/>
</linearGradient>
<linearGradient id="paint5_linear_28_123" x1="447.253" y1="120.038" x2="391.8" y2="-39.4993" gradientUnits="userSpaceOnUse">
<stop stop-color="#0055ED"/>
<stop offset="0.16" stop-color="#2292DB"/>
<stop offset="0.41" stop-color="#50E3C2"/>
<stop offset="0.645" stop-color="#3BBFCD"/>
<stop offset="0.935" stop-color="#2292DB"/>
</linearGradient>
<linearGradient id="paint6_linear_28_123" x1="268.988" y1="177.13" x2="473.118" y2="401.83" gradientUnits="userSpaceOnUse">
<stop stop-color="#0055ED"/>
<stop offset="0.16" stop-color="#2292DB"/>
<stop offset="0.41" stop-color="#50E3C2"/>
<stop offset="0.645" stop-color="#3BBFCD"/>
<stop offset="0.935" stop-color="#2292DB"/>
</linearGradient>
<linearGradient id="paint7_linear_28_123" x1="317.903" y1="184.421" x2="468.805" y2="257.094" gradientUnits="userSpaceOnUse">
<stop stop-color="#0055ED"/>
<stop offset="0.16" stop-color="#2292DB"/>
<stop offset="0.41" stop-color="#50E3C2"/>
<stop offset="0.645" stop-color="#3BBFCD"/>
<stop offset="0.935" stop-color="#2292DB"/>
</linearGradient>
<linearGradient id="paint8_linear_28_123" x1="273.88" y1="221.914" x2="391.089" y2="411.825" gradientUnits="userSpaceOnUse">
<stop stop-color="#0055ED"/>
<stop offset="0.16" stop-color="#2292DB"/>
<stop offset="0.41" stop-color="#50E3C2"/>
<stop offset="0.645" stop-color="#3BBFCD"/>
<stop offset="0.935" stop-color="#2292DB"/>
</linearGradient>
<linearGradient id="paint9_linear_28_123" x1="324.5" y1="136.529" x2="177.177" y2="474.586" gradientUnits="userSpaceOnUse">
<stop stop-color="#0055ED"/>
<stop offset="0.16" stop-color="#2292DB"/>
<stop offset="0.41" stop-color="#50E3C2"/>
<stop offset="0.645" stop-color="#3BBFCD"/>
<stop offset="0.935" stop-color="#2292DB"/>
</linearGradient>
<linearGradient id="paint10_linear_28_123" x1="158.311" y1="116.077" x2="175.367" y2="134.853" gradientUnits="userSpaceOnUse">
<stop stop-color="#0055ED"/>
<stop offset="0.16" stop-color="#2292DB"/>
<stop offset="0.41" stop-color="#50E3C2"/>
<stop offset="0.645" stop-color="#3BBFCD"/>
<stop offset="0.935" stop-color="#2292DB"/>
</linearGradient>
<linearGradient id="paint11_linear_28_123" x1="158.311" y1="442.514" x2="175.367" y2="461.289" gradientUnits="userSpaceOnUse">
<stop stop-color="#0055ED"/>
<stop offset="0.16" stop-color="#2292DB"/>
<stop offset="0.41" stop-color="#50E3C2"/>
<stop offset="0.645" stop-color="#3BBFCD"/>
<stop offset="0.935" stop-color="#2292DB"/>
</linearGradient>
<linearGradient id="paint12_linear_28_123" x1="376.617" y1="136.529" x2="523.94" y2="474.586" gradientUnits="userSpaceOnUse">
<stop stop-color="#0055ED"/>
<stop offset="0.16" stop-color="#2292DB"/>
<stop offset="0.41" stop-color="#50E3C2"/>
<stop offset="0.645" stop-color="#3BBFCD"/>
<stop offset="0.935" stop-color="#2292DB"/>
</linearGradient>
<linearGradient id="paint13_linear_28_123" x1="5.7012" y1="2.29256" x2="22.7578" y2="21.068" gradientUnits="userSpaceOnUse">
<stop stop-color="#0055ED"/>
<stop offset="0.16" stop-color="#2292DB"/>
<stop offset="0.41" stop-color="#50E3C2"/>
<stop offset="0.645" stop-color="#3BBFCD"/>
<stop offset="0.935" stop-color="#2292DB"/>
</linearGradient>
<linearGradient id="paint14_linear_28_123" x1="5.7012" y1="2.29256" x2="22.7578" y2="21.068" gradientUnits="userSpaceOnUse">
<stop stop-color="#0055ED"/>
<stop offset="0.16" stop-color="#2292DB"/>
<stop offset="0.41" stop-color="#50E3C2"/>
<stop offset="0.645" stop-color="#3BBFCD"/>
<stop offset="0.935" stop-color="#2292DB"/>
</linearGradient>
<linearGradient id="paint15_linear_28_123" x1="421" y1="637" x2="695" y2="637" gradientUnits="userSpaceOnUse">
<stop stop-color="#0055ED"/>
<stop offset="0.51" stop-color="#50E3C2"/>
<stop offset="1" stop-color="#2292DB"/>
</linearGradient>
<linearGradient id="paint16_linear_28_123" x1="41" y1="637" x2="315" y2="637" gradientUnits="userSpaceOnUse">
<stop stop-color="#0055ED"/>
<stop offset="0.51" stop-color="#50E3C2"/>
<stop offset="1" stop-color="#2292DB"/>
</linearGradient>
<linearGradient id="paint17_linear_28_123" x1="421" y1="663" x2="695" y2="663" gradientUnits="userSpaceOnUse">
<stop stop-color="#0055ED"/>
<stop offset="0.51" stop-color="#50E3C2"/>
<stop offset="1" stop-color="#2292DB"/>
</linearGradient>
<linearGradient id="paint18_linear_28_123" x1="41" y1="663" x2="315" y2="663" gradientUnits="userSpaceOnUse">
<stop stop-color="#0055ED"/>
<stop offset="0.51" stop-color="#50E3C2"/>
<stop offset="1" stop-color="#2292DB"/>
</linearGradient>
<linearGradient id="paint19_linear_28_123" x1="252.453" y1="479.718" x2="323.648" y2="632.744" gradientUnits="userSpaceOnUse">
<stop stop-color="#0055ED"/>
<stop offset="0.16" stop-color="#2292DB"/>
<stop offset="0.41" stop-color="#50E3C2"/>
<stop offset="0.645" stop-color="#3BBFCD"/>
<stop offset="0.935" stop-color="#2292DB"/>
</linearGradient>
<linearGradient id="paint20_linear_28_123" x1="447.253" y1="120.038" x2="391.8" y2="-39.4993" gradientUnits="userSpaceOnUse">
<stop stop-color="#0055ED"/>
<stop offset="0.16" stop-color="#2292DB"/>
<stop offset="0.41" stop-color="#50E3C2"/>
<stop offset="0.645" stop-color="#3BBFCD"/>
<stop offset="0.935" stop-color="#2292DB"/>
</linearGradient>
<linearGradient id="paint21_linear_28_123" x1="268.988" y1="177.13" x2="473.118" y2="401.83" gradientUnits="userSpaceOnUse">
<stop stop-color="#0055ED"/>
<stop offset="0.16" stop-color="#2292DB"/>
<stop offset="0.41" stop-color="#50E3C2"/>
<stop offset="0.645" stop-color="#3BBFCD"/>
<stop offset="0.935" stop-color="#2292DB"/>
</linearGradient>
<linearGradient id="paint22_linear_28_123" x1="317.903" y1="184.421" x2="468.805" y2="257.094" gradientUnits="userSpaceOnUse">
<stop stop-color="#0055ED"/>
<stop offset="0.16" stop-color="#2292DB"/>
<stop offset="0.41" stop-color="#50E3C2"/>
<stop offset="0.645" stop-color="#3BBFCD"/>
<stop offset="0.935" stop-color="#2292DB"/>
</linearGradient>
<linearGradient id="paint23_linear_28_123" x1="273.88" y1="221.914" x2="391.089" y2="411.825" gradientUnits="userSpaceOnUse">
<stop stop-color="#0055ED"/>
<stop offset="0.16" stop-color="#2292DB"/>
<stop offset="0.41" stop-color="#50E3C2"/>
<stop offset="0.645" stop-color="#3BBFCD"/>
<stop offset="0.935" stop-color="#2292DB"/>
</linearGradient>
<linearGradient id="paint24_linear_28_123" x1="324.5" y1="136.529" x2="177.177" y2="474.586" gradientUnits="userSpaceOnUse">
<stop stop-color="#0055ED"/>
<stop offset="0.16" stop-color="#2292DB"/>
<stop offset="0.41" stop-color="#50E3C2"/>
<stop offset="0.645" stop-color="#3BBFCD"/>
<stop offset="0.935" stop-color="#2292DB"/>
</linearGradient>
<linearGradient id="paint25_linear_28_123" x1="158.311" y1="116.077" x2="175.367" y2="134.853" gradientUnits="userSpaceOnUse">
<stop stop-color="#0055ED"/>
<stop offset="0.16" stop-color="#2292DB"/>
<stop offset="0.41" stop-color="#50E3C2"/>
<stop offset="0.645" stop-color="#3BBFCD"/>
<stop offset="0.935" stop-color="#2292DB"/>
</linearGradient>
<linearGradient id="paint26_linear_28_123" x1="158.311" y1="442.514" x2="175.367" y2="461.289" gradientUnits="userSpaceOnUse">
<stop stop-color="#0055ED"/>
<stop offset="0.16" stop-color="#2292DB"/>
<stop offset="0.41" stop-color="#50E3C2"/>
<stop offset="0.645" stop-color="#3BBFCD"/>
<stop offset="0.935" stop-color="#2292DB"/>
</linearGradient>
<linearGradient id="paint27_linear_28_123" x1="376.617" y1="136.529" x2="523.94" y2="474.586" gradientUnits="userSpaceOnUse">
<stop stop-color="#0055ED"/>
<stop offset="0.16" stop-color="#2292DB"/>
<stop offset="0.41" stop-color="#50E3C2"/>
<stop offset="0.645" stop-color="#3BBFCD"/>
<stop offset="0.935" stop-color="#2292DB"/>
</linearGradient>
<linearGradient id="paint28_linear_28_123" x1="5.7012" y1="2.29256" x2="22.7578" y2="21.068" gradientUnits="userSpaceOnUse">
<stop stop-color="#0055ED"/>
<stop offset="0.16" stop-color="#2292DB"/>
<stop offset="0.41" stop-color="#50E3C2"/>
<stop offset="0.645" stop-color="#3BBFCD"/>
<stop offset="0.935" stop-color="#2292DB"/>
</linearGradient>
<linearGradient id="paint29_linear_28_123" x1="5.7012" y1="2.29256" x2="22.7578" y2="21.068" gradientUnits="userSpaceOnUse">
<stop stop-color="#0055ED"/>
<stop offset="0.16" stop-color="#2292DB"/>
<stop offset="0.41" stop-color="#50E3C2"/>
<stop offset="0.645" stop-color="#3BBFCD"/>
<stop offset="0.935" stop-color="#2292DB"/>
</linearGradient>
</defs>
</svg>
